<?xml version="1.0" encoding="UTF-8" standalone="no"?>
<!-- Created with Inkscape (http://www.inkscape.org/) -->

<svg
   xmlns:dc="http://purl.org/dc/elements/1.1/"
   xmlns:cc="http://creativecommons.org/ns#"
   xmlns:rdf="http://www.w3.org/1999/02/22-rdf-syntax-ns#"
   xmlns:svg="http://www.w3.org/2000/svg"
   xmlns="http://www.w3.org/2000/svg"
   xmlns:sodipodi="http://sodipodi.sourceforge.net/DTD/sodipodi-0.dtd"
   xmlns:inkscape="http://www.inkscape.org/namespaces/inkscape"
   width="360"
   height="120"
   id="svg2"
   version="1.1"
   inkscape:version="0.48.4 r9939"
   sodipodi:docname="3.svg">
  <defs
     id="defs4" />
  <sodipodi:namedview
     id="base"
     pagecolor="#ffff00"
     bordercolor="#666666"
     borderopacity="1.0"
     inkscape:pageopacity="0.43921569"
     inkscape:pageshadow="2"
     inkscape:zoom="3.375"
     inkscape:cx="180"
     inkscape:cy="60"
     inkscape:document-units="px"
     inkscape:current-layer="layer1"
     showgrid="false"
     inkscape:window-width="1366"
     inkscape:window-height="744"
     inkscape:window-x="0"
     inkscape:window-y="24"
     inkscape:window-maximized="1" />
  <metadata
     id="metadata7">
    <rdf:RDF>
      <cc:Work
         rdf:about="">
        <dc:format>image/svg+xml</dc:format>
        <dc:type
           rdf:resource="http://purl.org/dc/dcmitype/StillImage" />
      </cc:Work>
    </rdf:RDF>
  </metadata>
  <g
     inkscape:label="Layer 1"
     inkscape:groupmode="layer"
     id="layer1"
     transform="translate(0,-932.36218)">
    <path
       sodipodi:type="arc"
       style="color:#000000;fill:#ffe076;fill-opacity:1;fill-rule:nonzero;stroke:#914c00;stroke-width:2;stroke-opacity:1;marker:none;visibility:visible;display:inline;overflow:visible;enable-background:accumulate"
       id="path3768"
       sodipodi:cx="310.37289"
       sodipodi:cy="65.084747"
       sodipodi:rx="51.661018"
       sodipodi:ry="49.220341"
       d="m 362.03391,65.084747 a 51.661018,49.220341 0 1 1 -103.32203,0 51.661018,49.220341 0 1 1 103.32203,0 z"
       transform="translate(-20,932.36218)" />
    <path
       style="color:#000000;fill:#914c00;fill-opacity:1;fill-rule:nonzero;stroke:none;stroke-width:2;marker:none;visibility:visible;display:inline;overflow:visible;enable-background:accumulate"
       id="path3770"
       d="m 277.3351,986.06193 c 1.72629,-0.15044 3.45793,-0.20956 5.1857,-0.34772 3.37936,-0.38548 6.7636,-0.71272 10.15389,-0.98706 3.24517,-0.34403 6.50569,-0.4642 9.76183,-0.64586 2.23661,-0.1414 4.47534,-0.23987 6.71567,-0.29413 0.95588,-0.017 0.50701,0.004 1.34697,-0.0535 1.82659,-0.11982 1.99604,2.46336 0.16945,2.58318 l 0,0 c -0.95804,0.0609 -0.47345,0.041 -1.45383,0.0583 -2.21318,0.0534 -4.42476,0.15116 -6.63425,0.29087 -3.23459,0.17999 -6.47348,0.29947 -9.69712,0.64145 -3.39131,0.27422 -6.77625,0.60354 -10.15679,0.98729 -1.79627,0.14293 -3.59567,0.211 -5.39152,0.35592 -1.8305,0 -1.8305,-2.58873 0,-2.58873 z"
       inkscape:connector-curvature="0" />
    <path
       style="color:#000000;fill:#914c00;fill-opacity:1;fill-rule:nonzero;stroke:none;stroke-width:2;marker:none;visibility:visible;display:inline;overflow:visible;enable-background:accumulate"
       id="path3778"
       d="m 291.32228,987.21682 c -0.31897,2.43916 -0.97167,4.81435 -1.6634,7.16914 -1.08988,3.59041 -2.5585,7.04434 -4.10744,10.45574 -0.45068,0.9903 -0.98435,1.9384 -1.50868,2.8905 -0.88316,1.6033 -3.15067,0.3544 -2.2675,-1.249 l 0,0 c 0.4923,-0.8936 0.99564,-1.7824 1.41908,-2.7118 1.49919,-3.3012 2.92426,-6.64208 3.98105,-10.11606 0.65423,-2.22036 1.27361,-4.45965 1.57815,-6.75961 0.22705,-1.81638 2.79579,-1.49528 2.56874,0.32109 z"
       inkscape:connector-curvature="0" />
    <path
       style="color:#000000;fill:#914c00;fill-opacity:1;fill-rule:nonzero;stroke:none;stroke-width:2;marker:none;visibility:visible;display:inline;overflow:visible;enable-background:accumulate"
       id="path3798"
       d="m 301.7216,988.13801 c -0.21517,2.22749 -0.62859,4.43609 -1.00736,6.64139 -0.43758,2.57153 -0.82124,5.17459 -0.64267,7.7874 0.0974,0.7015 0.22986,1.4353 0.62011,2.0433 0.14253,0.2221 0.32221,0.4181 0.47735,0.6315 0.53492,0.6698 1.18988,1.2261 1.92907,1.6567 0.59712,0.3208 1.26946,0.3934 1.93414,0.439 1.82576,0.1318 1.63936,2.7138 -0.18639,2.582 l 0,0 c -1.07392,-0.08 -2.13863,-0.2595 -3.08667,-0.8054 -1.02148,-0.6309 -1.95381,-1.3874 -2.68421,-2.3503 -0.16503,-0.227 -0.5758,-0.7852 -0.6922,-0.9828 -0.54453,-0.9247 -0.76815,-1.9963 -0.89461,-3.0481 -0.17141,-2.81642 0.18364,-5.61974 0.67471,-8.39155 0.35423,-2.06199 0.72364,-4.12564 0.97,-6.20314 0,-1.83051 2.58873,-1.83051 2.58873,0 z"
       inkscape:connector-curvature="0" />
    <text
       xml:space="preserve"
       style="font-size:40px;font-style:normal;font-variant:normal;font-weight:normal;font-stretch:normal;line-height:125%;letter-spacing:0px;word-spacing:0px;fill:#532700;fill-opacity:1;stroke:none;font-family:'文泉驿微米黑';-inkscape-font-specification:'文泉驿微米黑'"
       x="255.68683"
       y="1000.5949"
       id="text3810"
       sodipodi:linespacing="125%"
       transform="matrix(0.99701992,0.07714448,-0.07714448,0.99701992,0,0)"><tspan
         sodipodi:role="line"
         id="tspan3812"
         x="255.68683"
         y="1000.5949"
         style="font-size:10px;font-style:normal;font-variant:normal;font-weight:normal;font-stretch:normal;fill:#532700;fill-opacity:1;font-family:'文泉驿微米黑';-inkscape-font-specification:'文泉驿微米黑'">此处应有很多小数</tspan></text>
    <path
       style="color:#000000;fill:#532700;fill-opacity:1;fill-rule:nonzero;stroke:none;stroke-width:2;marker:none;visibility:visible;display:inline;overflow:visible;enable-background:accumulate"
       id="path3826"
       d="m 220.06604,1005.902 c 3.62848,-2.1285 7.58821,-3.6296 11.51508,-5.1036 5.04053,-1.89922 10.08923,-3.77754 15.15504,-5.60854 0.45642,-0.15755 0.91284,-0.3151 1.36925,-0.47265 1.73038,-0.59712 2.57484,1.85 0.84446,2.44713 l 0,0 c -0.4446,0.15337 -0.8892,0.30675 -1.3338,0.46012 -5.05613,1.82725 -10.09496,3.70234 -15.1258,5.59784 -3.72604,1.3965 -7.47497,2.823 -10.93969,4.8005 -1.49961,1.0497 -2.98415,-1.0711 -1.48454,-2.1208 z"
       inkscape:connector-curvature="0" />
    <path
       style="color:#000000;fill:#532700;fill-opacity:1;fill-rule:nonzero;stroke:none;stroke-width:2;marker:none;visibility:visible;display:inline;overflow:visible;enable-background:accumulate"
       id="path3832"
       d="m 246.67966,991.37463 c 0.97903,0.27837 1.84527,0.78801 2.71208,1.30353 0.87351,0.51375 1.58617,1.07028 2.20345,1.88042 0.77317,1.18192 0.7912,2.29156 0.37743,3.59917 -0.42318,0.91575 -1.10771,1.63132 -1.8593,2.28165 -0.1428,0.1135 -0.26836,0.2275 -0.34978,0.3896 -1.03436,1.5102 -3.17017,0.047 -2.13581,-1.46282 l 0,0 c 0.23486,-0.32323 0.47145,-0.63918 0.79222,-0.88483 0.40957,-0.35403 0.78746,-0.71862 1.10414,-1.16396 0.21017,-0.49915 0.24309,-0.73528 -0.0115,-1.2212 -0.36967,-0.53618 -0.90048,-0.8497 -1.44581,-1.19408 -0.70705,-0.42189 -1.40054,-0.85484 -2.20573,-1.0716 -1.73657,-0.57886 -0.91794,-3.03474 0.81863,-2.45588 z"
       inkscape:connector-curvature="0" />
    <path
       style="color:#000000;fill:#532700;fill-opacity:1;fill-rule:nonzero;stroke:none;stroke-width:2;marker:none;visibility:visible;display:inline;overflow:visible;enable-background:accumulate"
       id="path3838"
       d="m 211.98924,1001.4793 c 1.69378,-1.902 3.33905,-3.83511 5.26105,-5.51901 0.74178,-0.64989 1.52192,-1.25464 2.28289,-1.88195 4.29694,-3.41797 8.98496,-6.30498 13.82384,-8.88632 2.94546,-1.57128 5.94655,-2.98411 8.95128,-4.43592 7.00827,-3.24867 14.17091,-6.16088 21.40931,-8.85479 0.63574,-0.22532 1.27149,-0.45064 1.90723,-0.67596 1.7254,-0.61136 2.58999,1.82873 0.86459,2.44009 l 0,0 c -0.62299,0.22068 -1.24598,0.44137 -1.86898,0.66206 -7.16276,2.66512 -14.25031,5.54694 -21.18603,8.75956 -2.92266,1.41179 -5.94603,2.836 -8.81208,4.36339 -4.70452,2.50716 -9.26556,5.30697 -13.44438,8.62694 -0.71828,0.58977 -1.45451,1.15832 -2.15482,1.7693 -1.90595,1.66285 -3.51599,3.59101 -5.20339,5.46321 -1.29437,1.2943 -3.12488,-0.5362 -1.83051,-1.8306 z"
       inkscape:connector-curvature="0" />
    <path
       style="color:#000000;fill:#532700;fill-opacity:1;fill-rule:nonzero;stroke:none;stroke-width:2;marker:none;visibility:visible;display:inline;overflow:visible;enable-background:accumulate"
       id="path3840"
       d="m 266.04243,968.28048 c 1.00028,0.18148 1.95426,0.49919 2.84075,0.99405 1.24211,0.95616 1.47453,1.81764 1.19132,3.32755 -0.34175,1.03017 -0.68155,2.06501 -1.05472,3.08467 -0.16045,0.42602 -0.0896,0.22516 -0.21552,0.6015 -0.58551,1.73434 -3.03824,0.90629 -2.45272,-0.82805 l 0,0 c 0.15521,-0.45654 0.0747,-0.23198 0.24114,-0.67384 0.34099,-0.90158 0.61388,-1.83123 0.9522,-2.73434 0.0763,-0.24446 0.22354,-0.34136 0.0114,-0.55468 -0.55141,-0.40461 -1.29719,-0.48384 -1.93943,-0.66336 -1.80561,-0.30093 -1.38002,-2.85444 0.42558,-2.5535 z"
       inkscape:connector-curvature="0" />
    <path
       style="color:#000000;fill:#532700;fill-opacity:1;fill-rule:nonzero;stroke:none;stroke-width:2;marker:none;visibility:visible;display:inline;overflow:visible;enable-background:accumulate"
       id="path3842"
       d="m 220.86263,999.58924 c 4.94568,-3.74782 10.53592,-6.51308 16.06448,-9.27496 13.4001,-6.44611 27.38774,-11.54214 41.32188,-16.6879 11.0731,-4.06351 22.19433,-7.99603 33.39391,-11.69734 0.90403,-0.2844 1.80805,-0.56881 2.71208,-0.85321 1.74617,-0.54924 2.52292,1.92021 0.77675,2.46945 l 0,0 c -0.89218,0.28058 -1.78435,0.56116 -2.67653,0.84175 -11.17134,3.69168 -22.26424,7.6148 -33.30941,11.66778 -13.84565,5.113 -27.74531,10.1743 -41.06211,16.57547 -5.36631,2.67881 -10.79497,5.35576 -15.60388,8.98042 -1.42939,1.1435 -3.04655,-0.878 -1.61717,-2.02146 z"
       inkscape:connector-curvature="0" />
    <path
       style="color:#000000;fill:#532700;fill-opacity:1;fill-rule:nonzero;stroke:none;stroke-width:2;marker:none;visibility:visible;display:inline;overflow:visible;enable-background:accumulate"
       id="path3844"
       d="m 313.50913,959.37126 c 0.71816,0.0974 1.43547,0.16384 2.1477,0.30112 0.61185,0.20028 1.34694,0.46545 1.80849,0.95174 0.14968,0.1577 0.25797,0.35008 0.38695,0.52512 0.44749,0.943 0.28499,1.88362 -0.10932,2.8051 -0.39253,0.68931 -0.96544,1.24323 -1.34568,1.93955 -0.90036,1.59377 -3.15429,0.32047 -2.25393,-1.2733 l 0,0 c 0.35704,-0.61978 0.7705,-1.20494 1.2444,-1.74074 0.0633,-0.11351 0.1371,-0.32436 0.17694,-0.39653 0.0109,-0.0197 -0.0166,-0.0602 0.005,-0.0672 0.0227,-0.007 0.0354,0.0322 0.0531,0.0482 0.0479,0.0376 0.0911,0.0824 0.14381,0.1129 0.0105,0.006 0.0452,-0.002 0.0352,-0.009 -0.20019,-0.13481 -0.42097,-0.25774 -0.63548,-0.35394 -0.71727,-0.13879 -1.44334,-0.18644 -2.16458,-0.30443 -1.79496,-0.35899 -1.28727,-2.89745 0.5077,-2.53845 z"
       inkscape:connector-curvature="0" />
  </g>
</svg>
