<?xml version="1.0" encoding="UTF-8" standalone="no"?>
<!-- Created with Inkscape (http://www.inkscape.org/) -->

<svg
   xmlns:dc="http://purl.org/dc/elements/1.1/"
   xmlns:cc="http://creativecommons.org/ns#"
   xmlns:rdf="http://www.w3.org/1999/02/22-rdf-syntax-ns#"
   xmlns:svg="http://www.w3.org/2000/svg"
   xmlns="http://www.w3.org/2000/svg"
   xmlns:sodipodi="http://sodipodi.sourceforge.net/DTD/sodipodi-0.dtd"
   xmlns:inkscape="http://www.inkscape.org/namespaces/inkscape"
   width="300"
   height="240"
   id="svg2"
   version="1.1"
   inkscape:version="0.48.4 r9939"
   sodipodi:docname="新建文档 1">
  <defs
     id="defs4" />
  <sodipodi:namedview
     id="base"
     pagecolor="#ffffff"
     bordercolor="#666666"
     borderopacity="1.0"
     inkscape:pageopacity="0.0"
     inkscape:pageshadow="2"
     inkscape:zoom="2.5291667"
     inkscape:cx="150"
     inkscape:cy="120"
     inkscape:document-units="px"
     inkscape:current-layer="layer1"
     showgrid="false"
     inkscape:window-width="1301"
     inkscape:window-height="744"
     inkscape:window-x="65"
     inkscape:window-y="24"
     inkscape:window-maximized="1" />
  <metadata
     id="metadata7">
    <rdf:RDF>
      <cc:Work
         rdf:about="">
        <dc:format>image/svg+xml</dc:format>
        <dc:type
           rdf:resource="http://purl.org/dc/dcmitype/StillImage" />
        <dc:title></dc:title>
      </cc:Work>
    </rdf:RDF>
  </metadata>
  <g
     inkscape:label="Layer 1"
     inkscape:groupmode="layer"
     id="layer1"
     transform="translate(0,-812.36218)">
    <g
       transform="matrix(3.0975772,0,0,3.0975772,-0.6947172,-2072.0422)"
       id="g3093"
       style="fill:#999999">
      <path
         sodipodi:type="arc"
         style="color:#000000;fill:#999999;fill-opacity:1;fill-rule:nonzero;stroke:none;stroke-width:20;marker:none;visibility:visible;display:inline;overflow:visible;enable-background:accumulate"
         id="path3095"
         sodipodi:cx="30.444811"
         sodipodi:cy="144.31631"
         sodipodi:rx="7.1169686"
         sodipodi:ry="7.1169686"
         d="m 37.561779,144.31631 c 0,3.9306 -3.186375,7.11697 -7.116968,7.11697 -3.930593,0 -7.116969,-3.18637 -7.116969,-7.11697 0,-3.93059 3.186376,-7.11696 7.116969,-7.11696 3.930593,0 7.116968,3.18637 7.116968,7.11696 z"
         transform="translate(0,812.36218)" />
      <path
         style="color:#000000;fill:#999999;fill-opacity:1;fill-rule:nonzero;stroke:none;stroke-width:20;marker:none;visibility:visible;display:inline;overflow:visible;enable-background:accumulate"
         id="path3097"
         d="m 31.852626,149.98193 c -0.03842,0.61054 -0.03702,1.22306 -0.04248,1.83456 -0.0084,1.36606 -0.008,2.73215 -0.0083,4.09823 0.0062,1.23397 -0.0116,2.46817 0.0085,3.70203 0.02204,0.85919 0.04251,1.71839 0.05387,2.57779 0.0061,0.51084 0.0079,1.02172 0.0084,1.5326 1.1e-5,0.0499 2.1e-5,0.0997 3.1e-5,0.14961 3.25e-4,1.58155 -2.236322,1.582 -2.236647,4.6e-4 l 0,0 c -10e-6,-0.0493 -2e-5,-0.0986 -3e-5,-0.14789 -4.89e-4,-0.50177 -0.0022,-1.00354 -0.0082,-1.50527 -0.01129,-0.85729 -0.03199,-1.71436 -0.05377,-2.57144 -0.01965,-1.24601 -0.0034,-2.49231 -0.0088,-3.73843 3.28e-4,-1.37257 -1.14e-4,-2.74515 0.0084,-4.1177 0.0064,-0.71017 -6.27e-4,-1.42312 0.06487,-2.13086 0.223665,-1.56565 2.437833,-1.24934 2.214168,0.31631 z"
         inkscape:connector-curvature="0"
         transform="translate(0,812.36218)" />
      <path
         style="color:#000000;fill:#999999;fill-opacity:1;fill-rule:nonzero;stroke:none;stroke-width:20;marker:none;visibility:visible;display:inline;overflow:visible;enable-background:accumulate"
         id="path3099"
         d="m 26.414646,980.89032 c 0.370959,-0.55185 0.682878,-1.14228 1.02263,-1.7139 0.450646,-0.80432 0.936682,-1.58811 1.388821,-2.39146 0.270154,-0.45432 0.507042,-0.9273 0.769371,-1.38592 0.47327,-0.69784 0.86758,-0.75003 1.783775,-0.41669 0.254454,0.0926 0.493304,0.69455 0.605515,0.94639 0.323739,0.74099 0.636853,1.4864 0.976402,2.22039 0.259895,0.56731 0.529039,1.13034 0.793857,1.69538 0.124463,0.27881 0.229859,0.5661 0.301304,0.86293 0.03964,0.1695 0.111226,0.3261 0.152438,0.49628 0.01944,0.0803 0.03126,0.16224 0.04689,0.24336 0.03455,0.26146 0.02038,0.13492 0.04352,0.37952 0.143177,1.57506 -2.084286,1.77754 -2.227463,0.20249 l 0,0 c -0.01116,-0.13228 -0.0048,-0.0672 -0.01901,-0.19524 -0.02276,-0.2242 -0.156969,-0.4263 -0.182474,-0.65358 0.02841,0.0517 -0.02151,-0.075 -0.02647,-0.0885 -0.03696,-0.10031 -0.06906,-0.20144 -0.114169,-0.29847 -0.266271,-0.56872 -0.537425,-1.13519 -0.798869,-1.70615 -0.343316,-0.74406 -0.662598,-1.49846 -0.989688,-2.2497 -0.03068,-0.0692 -0.06252,-0.13787 -0.09205,-0.20755 -0.08809,-0.20784 0.107448,0.13878 0.216159,0.16234 0.3114,0.0675 1.268843,0.31357 1.467927,-0.27592 -0.262769,0.44966 -0.48775,0.92118 -0.75835,1.36659 -0.461576,0.81837 -0.955118,1.61824 -1.415446,2.43742 -0.381098,0.63935 -0.726118,1.30303 -1.155303,1.91198 -0.948929,1.26524 -2.738247,-0.0768 -1.789318,-1.34199 z"
         inkscape:connector-curvature="0" />
      <path
         style="color:#000000;fill:#999999;fill-opacity:1;fill-rule:nonzero;stroke:none;stroke-width:20;marker:none;visibility:visible;display:inline;overflow:visible;enable-background:accumulate"
         id="path3101"
         d="m 25.925933,967.37552 c 0.522776,-0.70998 1.146103,-1.33559 1.761268,-1.96409 0.693832,-0.68423 1.371616,-1.38464 2.063395,-2.07085 0.357748,-0.3203 0.738056,-0.58986 1.275049,-0.50466 0.264448,0.042 0.505073,0.19526 0.721763,0.35255 0.135701,0.0985 0.395618,0.51337 0.508419,0.68523 0.375514,0.54754 0.731179,1.10859 1.130276,1.63967 0.280249,0.37292 0.396904,0.50654 0.690979,0.86342 0.383216,0.47446 0.816857,0.90499 1.255497,1.32754 0.152299,0.14406 0.282152,0.30528 0.402951,0.47582 0.875517,1.31711 -0.987149,2.55528 -1.862667,1.23818 l 0,0 c 0.07561,0.0835 -0.07769,-0.0932 -0.09208,-0.10324 -0.500717,-0.48242 -0.992798,-0.97652 -1.431021,-1.51739 -0.333595,-0.40615 -0.456528,-0.54675 -0.775302,-0.97263 -0.418803,-0.55953 -0.79514,-1.14827 -1.189143,-1.72507 -0.05335,-0.0815 -0.122775,-0.15443 -0.160024,-0.2444 -0.01063,-0.0258 0.04825,0.0285 0.0745,0.0379 0.167022,0.0594 0.32735,0.16336 0.504564,0.16813 0.18625,0.005 0.364414,-0.0809 0.541121,-0.13999 0.0069,-0.002 0.208888,-0.19162 -0.02052,0.008 -0.684434,0.67756 -1.353044,1.37125 -2.039525,2.04684 -0.564534,0.57653 -1.139024,1.14808 -1.616646,1.8012 -0.991198,1.23241 -2.73408,-0.16936 -1.742882,-1.40177 z"
         inkscape:connector-curvature="0" />
    </g>
    <g
       id="g3103"
       transform="matrix(3.0975772,0,0,3.0975772,103.2921,-2072.0422)"
       style="fill:#999999">
      <path
         transform="translate(0,812.36218)"
         d="m 37.561779,144.31631 c 0,3.9306 -3.186375,7.11697 -7.116968,7.11697 -3.930593,0 -7.116969,-3.18637 -7.116969,-7.11697 0,-3.93059 3.186376,-7.11696 7.116969,-7.11696 3.930593,0 7.116968,3.18637 7.116968,7.11696 z"
         sodipodi:ry="7.1169686"
         sodipodi:rx="7.1169686"
         sodipodi:cy="144.31631"
         sodipodi:cx="30.444811"
         id="path3105"
         style="color:#000000;fill:#999999;fill-opacity:1;fill-rule:nonzero;stroke:none;stroke-width:20;marker:none;visibility:visible;display:inline;overflow:visible;enable-background:accumulate"
         sodipodi:type="arc" />
      <path
         transform="translate(0,812.36218)"
         inkscape:connector-curvature="0"
         d="m 31.852626,149.98193 c -0.03842,0.61054 -0.03702,1.22306 -0.04248,1.83456 -0.0084,1.36606 -0.008,2.73215 -0.0083,4.09823 0.0062,1.23397 -0.0116,2.46817 0.0085,3.70203 0.02204,0.85919 0.04251,1.71839 0.05387,2.57779 0.0061,0.51084 0.0079,1.02172 0.0084,1.5326 1.1e-5,0.0499 2.1e-5,0.0997 3.1e-5,0.14961 3.25e-4,1.58155 -2.236322,1.582 -2.236647,4.6e-4 l 0,0 c -10e-6,-0.0493 -2e-5,-0.0986 -3e-5,-0.14789 -4.89e-4,-0.50177 -0.0022,-1.00354 -0.0082,-1.50527 -0.01129,-0.85729 -0.03199,-1.71436 -0.05377,-2.57144 -0.01965,-1.24601 -0.0034,-2.49231 -0.0088,-3.73843 3.28e-4,-1.37257 -1.14e-4,-2.74515 0.0084,-4.1177 0.0064,-0.71017 -6.27e-4,-1.42312 0.06487,-2.13086 0.223665,-1.56565 2.437833,-1.24934 2.214168,0.31631 z"
         id="path3107"
         style="color:#000000;fill:#999999;fill-opacity:1;fill-rule:nonzero;stroke:none;stroke-width:20;marker:none;visibility:visible;display:inline;overflow:visible;enable-background:accumulate" />
      <path
         inkscape:connector-curvature="0"
         d="m 26.414646,980.89032 c 0.370959,-0.55185 0.682878,-1.14228 1.02263,-1.7139 0.450646,-0.80432 0.936682,-1.58811 1.388821,-2.39146 0.270154,-0.45432 0.507042,-0.9273 0.769371,-1.38592 0.47327,-0.69784 0.86758,-0.75003 1.783775,-0.41669 0.254454,0.0926 0.493304,0.69455 0.605515,0.94639 0.323739,0.74099 0.636853,1.4864 0.976402,2.22039 0.259895,0.56731 0.529039,1.13034 0.793857,1.69538 0.124463,0.27881 0.229859,0.5661 0.301304,0.86293 0.03964,0.1695 0.111226,0.3261 0.152438,0.49628 0.01944,0.0803 0.03126,0.16224 0.04689,0.24336 0.03455,0.26146 0.02038,0.13492 0.04352,0.37952 0.143177,1.57506 -2.084286,1.77754 -2.227463,0.20249 l 0,0 c -0.01116,-0.13228 -0.0048,-0.0672 -0.01901,-0.19524 -0.02276,-0.2242 -0.156969,-0.4263 -0.182474,-0.65358 0.02841,0.0517 -0.02151,-0.075 -0.02647,-0.0885 -0.03696,-0.10031 -0.06906,-0.20144 -0.114169,-0.29847 -0.266271,-0.56872 -0.537425,-1.13519 -0.798869,-1.70615 -0.343316,-0.74406 -0.662598,-1.49846 -0.989688,-2.2497 -0.03068,-0.0692 -0.06252,-0.13787 -0.09205,-0.20755 -0.08809,-0.20784 0.107448,0.13878 0.216159,0.16234 0.3114,0.0675 1.268843,0.31357 1.467927,-0.27592 -0.262769,0.44966 -0.48775,0.92118 -0.75835,1.36659 -0.461576,0.81837 -0.955118,1.61824 -1.415446,2.43742 -0.381098,0.63935 -0.726118,1.30303 -1.155303,1.91198 -0.948929,1.26524 -2.738247,-0.0768 -1.789318,-1.34199 z"
         id="path3109"
         style="color:#000000;fill:#999999;fill-opacity:1;fill-rule:nonzero;stroke:none;stroke-width:20;marker:none;visibility:visible;display:inline;overflow:visible;enable-background:accumulate" />
      <path
         inkscape:connector-curvature="0"
         d="m 25.925933,967.37552 c 0.522776,-0.70998 1.146103,-1.33559 1.761268,-1.96409 0.693832,-0.68423 1.371616,-1.38464 2.063395,-2.07085 0.357748,-0.3203 0.738056,-0.58986 1.275049,-0.50466 0.264448,0.042 0.505073,0.19526 0.721763,0.35255 0.135701,0.0985 0.395618,0.51337 0.508419,0.68523 0.375514,0.54754 0.731179,1.10859 1.130276,1.63967 0.280249,0.37292 0.396904,0.50654 0.690979,0.86342 0.383216,0.47446 0.816857,0.90499 1.255497,1.32754 0.152299,0.14406 0.282152,0.30528 0.402951,0.47582 0.875517,1.31711 -0.987149,2.55528 -1.862667,1.23818 l 0,0 c 0.07561,0.0835 -0.07769,-0.0932 -0.09208,-0.10324 -0.500717,-0.48242 -0.992798,-0.97652 -1.431021,-1.51739 -0.333595,-0.40615 -0.456528,-0.54675 -0.775302,-0.97263 -0.418803,-0.55953 -0.79514,-1.14827 -1.189143,-1.72507 -0.05335,-0.0815 -0.122775,-0.15443 -0.160024,-0.2444 -0.01063,-0.0258 0.04825,0.0285 0.0745,0.0379 0.167022,0.0594 0.32735,0.16336 0.504564,0.16813 0.18625,0.005 0.364414,-0.0809 0.541121,-0.13999 0.0069,-0.002 0.208888,-0.19162 -0.02052,0.008 -0.684434,0.67756 -1.353044,1.37125 -2.039525,2.04684 -0.564534,0.57653 -1.139024,1.14808 -1.616646,1.8012 -0.991198,1.23241 -2.73408,-0.16936 -1.742882,-1.40177 z"
         id="path3111"
         style="color:#000000;fill:#999999;fill-opacity:1;fill-rule:nonzero;stroke:none;stroke-width:20;marker:none;visibility:visible;display:inline;overflow:visible;enable-background:accumulate" />
    </g>
    <g
       transform="matrix(0,-3.0975772,3.0975772,0,-2848.2951,1063.806)"
       id="g3113"
       style="fill:#999999">
      <path
         sodipodi:type="arc"
         style="color:#000000;fill:#999999;fill-opacity:1;fill-rule:nonzero;stroke:none;stroke-width:20;marker:none;visibility:visible;display:inline;overflow:visible;enable-background:accumulate"
         id="path3115"
         sodipodi:cx="30.444811"
         sodipodi:cy="144.31631"
         sodipodi:rx="7.1169686"
         sodipodi:ry="7.1169686"
         d="m 37.561779,144.31631 c 0,3.9306 -3.186375,7.11697 -7.116968,7.11697 -3.930593,0 -7.116969,-3.18637 -7.116969,-7.11697 0,-3.93059 3.186376,-7.11696 7.116969,-7.11696 3.930593,0 7.116968,3.18637 7.116968,7.11696 z"
         transform="translate(0,812.36218)" />
      <path
         style="color:#000000;fill:#999999;fill-opacity:1;fill-rule:nonzero;stroke:none;stroke-width:20;marker:none;visibility:visible;display:inline;overflow:visible;enable-background:accumulate"
         id="path3117"
         d="m 31.852626,149.98193 c -0.03842,0.61054 -0.03702,1.22306 -0.04248,1.83456 -0.0084,1.36606 -0.008,2.73215 -0.0083,4.09823 0.0062,1.23397 -0.0116,2.46817 0.0085,3.70203 0.02204,0.85919 0.04251,1.71839 0.05387,2.57779 0.0061,0.51084 0.0079,1.02172 0.0084,1.5326 1.1e-5,0.0499 2.1e-5,0.0997 3.1e-5,0.14961 3.25e-4,1.58155 -2.236322,1.582 -2.236647,4.6e-4 l 0,0 c -10e-6,-0.0493 -2e-5,-0.0986 -3e-5,-0.14789 -4.89e-4,-0.50177 -0.0022,-1.00354 -0.0082,-1.50527 -0.01129,-0.85729 -0.03199,-1.71436 -0.05377,-2.57144 -0.01965,-1.24601 -0.0034,-2.49231 -0.0088,-3.73843 3.28e-4,-1.37257 -1.14e-4,-2.74515 0.0084,-4.1177 0.0064,-0.71017 -6.27e-4,-1.42312 0.06487,-2.13086 0.223665,-1.56565 2.437833,-1.24934 2.214168,0.31631 z"
         inkscape:connector-curvature="0"
         transform="translate(0,812.36218)" />
      <path
         style="color:#000000;fill:#999999;fill-opacity:1;fill-rule:nonzero;stroke:none;stroke-width:20;marker:none;visibility:visible;display:inline;overflow:visible;enable-background:accumulate"
         id="path3119"
         d="m 26.414646,980.89032 c 0.370959,-0.55185 0.682878,-1.14228 1.02263,-1.7139 0.450646,-0.80432 0.936682,-1.58811 1.388821,-2.39146 0.270154,-0.45432 0.507042,-0.9273 0.769371,-1.38592 0.47327,-0.69784 0.86758,-0.75003 1.783775,-0.41669 0.254454,0.0926 0.493304,0.69455 0.605515,0.94639 0.323739,0.74099 0.636853,1.4864 0.976402,2.22039 0.259895,0.56731 0.529039,1.13034 0.793857,1.69538 0.124463,0.27881 0.229859,0.5661 0.301304,0.86293 0.03964,0.1695 0.111226,0.3261 0.152438,0.49628 0.01944,0.0803 0.03126,0.16224 0.04689,0.24336 0.03455,0.26146 0.02038,0.13492 0.04352,0.37952 0.143177,1.57506 -2.084286,1.77754 -2.227463,0.20249 l 0,0 c -0.01116,-0.13228 -0.0048,-0.0672 -0.01901,-0.19524 -0.02276,-0.2242 -0.156969,-0.4263 -0.182474,-0.65358 0.02841,0.0517 -0.02151,-0.075 -0.02647,-0.0885 -0.03696,-0.10031 -0.06906,-0.20144 -0.114169,-0.29847 -0.266271,-0.56872 -0.537425,-1.13519 -0.798869,-1.70615 -0.343316,-0.74406 -0.662598,-1.49846 -0.989688,-2.2497 -0.03068,-0.0692 -0.06252,-0.13787 -0.09205,-0.20755 -0.08809,-0.20784 0.107448,0.13878 0.216159,0.16234 0.3114,0.0675 1.268843,0.31357 1.467927,-0.27592 -0.262769,0.44966 -0.48775,0.92118 -0.75835,1.36659 -0.461576,0.81837 -0.955118,1.61824 -1.415446,2.43742 -0.381098,0.63935 -0.726118,1.30303 -1.155303,1.91198 -0.948929,1.26524 -2.738247,-0.0768 -1.789318,-1.34199 z"
         inkscape:connector-curvature="0" />
      <path
         style="color:#000000;fill:#999999;fill-opacity:1;fill-rule:nonzero;stroke:none;stroke-width:20;marker:none;visibility:visible;display:inline;overflow:visible;enable-background:accumulate"
         id="path3121"
         d="m 25.925933,967.37552 c 0.522776,-0.70998 1.146103,-1.33559 1.761268,-1.96409 0.693832,-0.68423 1.371616,-1.38464 2.063395,-2.07085 0.357748,-0.3203 0.738056,-0.58986 1.275049,-0.50466 0.264448,0.042 0.505073,0.19526 0.721763,0.35255 0.135701,0.0985 0.395618,0.51337 0.508419,0.68523 0.375514,0.54754 0.731179,1.10859 1.130276,1.63967 0.280249,0.37292 0.396904,0.50654 0.690979,0.86342 0.383216,0.47446 0.816857,0.90499 1.255497,1.32754 0.152299,0.14406 0.282152,0.30528 0.402951,0.47582 0.875517,1.31711 -0.987149,2.55528 -1.862667,1.23818 l 0,0 c 0.07561,0.0835 -0.07769,-0.0932 -0.09208,-0.10324 -0.500717,-0.48242 -0.992798,-0.97652 -1.431021,-1.51739 -0.333595,-0.40615 -0.456528,-0.54675 -0.775302,-0.97263 -0.418803,-0.55953 -0.79514,-1.14827 -1.189143,-1.72507 -0.05335,-0.0815 -0.122775,-0.15443 -0.160024,-0.2444 -0.01063,-0.0258 0.04825,0.0285 0.0745,0.0379 0.167022,0.0594 0.32735,0.16336 0.504564,0.16813 0.18625,0.005 0.364414,-0.0809 0.541121,-0.13999 0.0069,-0.002 0.208888,-0.19162 -0.02052,0.008 -0.684434,0.67756 -1.353044,1.37125 -2.039525,2.04684 -0.564534,0.57653 -1.139024,1.14808 -1.616646,1.8012 -0.991198,1.23241 -2.73408,-0.16936 -1.742882,-1.40177 z"
         inkscape:connector-curvature="0" />
    </g>
    <g
       id="g3123"
       transform="matrix(0,-3.0975772,3.0975772,0,-2848.2951,965.74999)"
       style="fill:#999999">
      <path
         transform="translate(0,812.36218)"
         d="m 37.561779,144.31631 c 0,3.9306 -3.186375,7.11697 -7.116968,7.11697 -3.930593,0 -7.116969,-3.18637 -7.116969,-7.11697 0,-3.93059 3.186376,-7.11696 7.116969,-7.11696 3.930593,0 7.116968,3.18637 7.116968,7.11696 z"
         sodipodi:ry="7.1169686"
         sodipodi:rx="7.1169686"
         sodipodi:cy="144.31631"
         sodipodi:cx="30.444811"
         id="path3125"
         style="color:#000000;fill:#999999;fill-opacity:1;fill-rule:nonzero;stroke:none;stroke-width:20;marker:none;visibility:visible;display:inline;overflow:visible;enable-background:accumulate"
         sodipodi:type="arc" />
      <path
         transform="translate(0,812.36218)"
         inkscape:connector-curvature="0"
         d="m 31.852626,149.98193 c -0.03842,0.61054 -0.03702,1.22306 -0.04248,1.83456 -0.0084,1.36606 -0.008,2.73215 -0.0083,4.09823 0.0062,1.23397 -0.0116,2.46817 0.0085,3.70203 0.02204,0.85919 0.04251,1.71839 0.05387,2.57779 0.0061,0.51084 0.0079,1.02172 0.0084,1.5326 1.1e-5,0.0499 2.1e-5,0.0997 3.1e-5,0.14961 3.25e-4,1.58155 -2.236322,1.582 -2.236647,4.6e-4 l 0,0 c -10e-6,-0.0493 -2e-5,-0.0986 -3e-5,-0.14789 -4.89e-4,-0.50177 -0.0022,-1.00354 -0.0082,-1.50527 -0.01129,-0.85729 -0.03199,-1.71436 -0.05377,-2.57144 -0.01965,-1.24601 -0.0034,-2.49231 -0.0088,-3.73843 3.28e-4,-1.37257 -1.14e-4,-2.74515 0.0084,-4.1177 0.0064,-0.71017 -6.27e-4,-1.42312 0.06487,-2.13086 0.223665,-1.56565 2.437833,-1.24934 2.214168,0.31631 z"
         id="path3127"
         style="color:#000000;fill:#999999;fill-opacity:1;fill-rule:nonzero;stroke:none;stroke-width:20;marker:none;visibility:visible;display:inline;overflow:visible;enable-background:accumulate" />
      <path
         inkscape:connector-curvature="0"
         d="m 26.414646,980.89032 c 0.370959,-0.55185 0.682878,-1.14228 1.02263,-1.7139 0.450646,-0.80432 0.936682,-1.58811 1.388821,-2.39146 0.270154,-0.45432 0.507042,-0.9273 0.769371,-1.38592 0.47327,-0.69784 0.86758,-0.75003 1.783775,-0.41669 0.254454,0.0926 0.493304,0.69455 0.605515,0.94639 0.323739,0.74099 0.636853,1.4864 0.976402,2.22039 0.259895,0.56731 0.529039,1.13034 0.793857,1.69538 0.124463,0.27881 0.229859,0.5661 0.301304,0.86293 0.03964,0.1695 0.111226,0.3261 0.152438,0.49628 0.01944,0.0803 0.03126,0.16224 0.04689,0.24336 0.03455,0.26146 0.02038,0.13492 0.04352,0.37952 0.143177,1.57506 -2.084286,1.77754 -2.227463,0.20249 l 0,0 c -0.01116,-0.13228 -0.0048,-0.0672 -0.01901,-0.19524 -0.02276,-0.2242 -0.156969,-0.4263 -0.182474,-0.65358 0.02841,0.0517 -0.02151,-0.075 -0.02647,-0.0885 -0.03696,-0.10031 -0.06906,-0.20144 -0.114169,-0.29847 -0.266271,-0.56872 -0.537425,-1.13519 -0.798869,-1.70615 -0.343316,-0.74406 -0.662598,-1.49846 -0.989688,-2.2497 -0.03068,-0.0692 -0.06252,-0.13787 -0.09205,-0.20755 -0.08809,-0.20784 0.107448,0.13878 0.216159,0.16234 0.3114,0.0675 1.268843,0.31357 1.467927,-0.27592 -0.262769,0.44966 -0.48775,0.92118 -0.75835,1.36659 -0.461576,0.81837 -0.955118,1.61824 -1.415446,2.43742 -0.381098,0.63935 -0.726118,1.30303 -1.155303,1.91198 -0.948929,1.26524 -2.738247,-0.0768 -1.789318,-1.34199 z"
         id="path3129"
         style="color:#000000;fill:#999999;fill-opacity:1;fill-rule:nonzero;stroke:none;stroke-width:20;marker:none;visibility:visible;display:inline;overflow:visible;enable-background:accumulate" />
      <path
         inkscape:connector-curvature="0"
         d="m 25.925933,967.37552 c 0.522776,-0.70998 1.146103,-1.33559 1.761268,-1.96409 0.693832,-0.68423 1.371616,-1.38464 2.063395,-2.07085 0.357748,-0.3203 0.738056,-0.58986 1.275049,-0.50466 0.264448,0.042 0.505073,0.19526 0.721763,0.35255 0.135701,0.0985 0.395618,0.51337 0.508419,0.68523 0.375514,0.54754 0.731179,1.10859 1.130276,1.63967 0.280249,0.37292 0.396904,0.50654 0.690979,0.86342 0.383216,0.47446 0.816857,0.90499 1.255497,1.32754 0.152299,0.14406 0.282152,0.30528 0.402951,0.47582 0.875517,1.31711 -0.987149,2.55528 -1.862667,1.23818 l 0,0 c 0.07561,0.0835 -0.07769,-0.0932 -0.09208,-0.10324 -0.500717,-0.48242 -0.992798,-0.97652 -1.431021,-1.51739 -0.333595,-0.40615 -0.456528,-0.54675 -0.775302,-0.97263 -0.418803,-0.55953 -0.79514,-1.14827 -1.189143,-1.72507 -0.05335,-0.0815 -0.122775,-0.15443 -0.160024,-0.2444 -0.01063,-0.0258 0.04825,0.0285 0.0745,0.0379 0.167022,0.0594 0.32735,0.16336 0.504564,0.16813 0.18625,0.005 0.364414,-0.0809 0.541121,-0.13999 0.0069,-0.002 0.208888,-0.19162 -0.02052,0.008 -0.684434,0.67756 -1.353044,1.37125 -2.039525,2.04684 -0.564534,0.57653 -1.139024,1.14808 -1.616646,1.8012 -0.991198,1.23241 -2.73408,-0.16936 -1.742882,-1.40177 z"
         id="path3131"
         style="color:#000000;fill:#999999;fill-opacity:1;fill-rule:nonzero;stroke:none;stroke-width:20;marker:none;visibility:visible;display:inline;overflow:visible;enable-background:accumulate" />
    </g>
    <g
       id="g3133"
       transform="matrix(3.0975772,0,0,3.0975772,-0.6947172,-2072.0422)"
       style="fill:#999999">
      <path
         transform="translate(0,812.36218)"
         d="m 37.561779,144.31631 c 0,3.9306 -3.186375,7.11697 -7.116968,7.11697 -3.930593,0 -7.116969,-3.18637 -7.116969,-7.11697 0,-3.93059 3.186376,-7.11696 7.116969,-7.11696 3.930593,0 7.116968,3.18637 7.116968,7.11696 z"
         sodipodi:ry="7.1169686"
         sodipodi:rx="7.1169686"
         sodipodi:cy="144.31631"
         sodipodi:cx="30.444811"
         id="path3135"
         style="color:#000000;fill:#999999;fill-opacity:1;fill-rule:nonzero;stroke:none;stroke-width:20;marker:none;visibility:visible;display:inline;overflow:visible;enable-background:accumulate"
         sodipodi:type="arc" />
      <path
         transform="translate(0,812.36218)"
         inkscape:connector-curvature="0"
         d="m 31.852626,149.98193 c -0.03842,0.61054 -0.03702,1.22306 -0.04248,1.83456 -0.0084,1.36606 -0.008,2.73215 -0.0083,4.09823 0.0062,1.23397 -0.0116,2.46817 0.0085,3.70203 0.02204,0.85919 0.04251,1.71839 0.05387,2.57779 0.0061,0.51084 0.0079,1.02172 0.0084,1.5326 1.1e-5,0.0499 2.1e-5,0.0997 3.1e-5,0.14961 3.25e-4,1.58155 -2.236322,1.582 -2.236647,4.6e-4 l 0,0 c -10e-6,-0.0493 -2e-5,-0.0986 -3e-5,-0.14789 -4.89e-4,-0.50177 -0.0022,-1.00354 -0.0082,-1.50527 -0.01129,-0.85729 -0.03199,-1.71436 -0.05377,-2.57144 -0.01965,-1.24601 -0.0034,-2.49231 -0.0088,-3.73843 3.28e-4,-1.37257 -1.14e-4,-2.74515 0.0084,-4.1177 0.0064,-0.71017 -6.27e-4,-1.42312 0.06487,-2.13086 0.223665,-1.56565 2.437833,-1.24934 2.214168,0.31631 z"
         id="path3137"
         style="color:#000000;fill:#999999;fill-opacity:1;fill-rule:nonzero;stroke:none;stroke-width:20;marker:none;visibility:visible;display:inline;overflow:visible;enable-background:accumulate" />
      <path
         inkscape:connector-curvature="0"
         d="m 26.414646,980.89032 c 0.370959,-0.55185 0.682878,-1.14228 1.02263,-1.7139 0.450646,-0.80432 0.936682,-1.58811 1.388821,-2.39146 0.270154,-0.45432 0.507042,-0.9273 0.769371,-1.38592 0.47327,-0.69784 0.86758,-0.75003 1.783775,-0.41669 0.254454,0.0926 0.493304,0.69455 0.605515,0.94639 0.323739,0.74099 0.636853,1.4864 0.976402,2.22039 0.259895,0.56731 0.529039,1.13034 0.793857,1.69538 0.124463,0.27881 0.229859,0.5661 0.301304,0.86293 0.03964,0.1695 0.111226,0.3261 0.152438,0.49628 0.01944,0.0803 0.03126,0.16224 0.04689,0.24336 0.03455,0.26146 0.02038,0.13492 0.04352,0.37952 0.143177,1.57506 -2.084286,1.77754 -2.227463,0.20249 l 0,0 c -0.01116,-0.13228 -0.0048,-0.0672 -0.01901,-0.19524 -0.02276,-0.2242 -0.156969,-0.4263 -0.182474,-0.65358 0.02841,0.0517 -0.02151,-0.075 -0.02647,-0.0885 -0.03696,-0.10031 -0.06906,-0.20144 -0.114169,-0.29847 -0.266271,-0.56872 -0.537425,-1.13519 -0.798869,-1.70615 -0.343316,-0.74406 -0.662598,-1.49846 -0.989688,-2.2497 -0.03068,-0.0692 -0.06252,-0.13787 -0.09205,-0.20755 -0.08809,-0.20784 0.107448,0.13878 0.216159,0.16234 0.3114,0.0675 1.268843,0.31357 1.467927,-0.27592 -0.262769,0.44966 -0.48775,0.92118 -0.75835,1.36659 -0.461576,0.81837 -0.955118,1.61824 -1.415446,2.43742 -0.381098,0.63935 -0.726118,1.30303 -1.155303,1.91198 -0.948929,1.26524 -2.738247,-0.0768 -1.789318,-1.34199 z"
         id="path3139"
         style="color:#000000;fill:#999999;fill-opacity:1;fill-rule:nonzero;stroke:none;stroke-width:20;marker:none;visibility:visible;display:inline;overflow:visible;enable-background:accumulate" />
      <path
         inkscape:connector-curvature="0"
         d="m 25.925933,967.37552 c 0.522776,-0.70998 1.146103,-1.33559 1.761268,-1.96409 0.693832,-0.68423 1.371616,-1.38464 2.063395,-2.07085 0.357748,-0.3203 0.738056,-0.58986 1.275049,-0.50466 0.264448,0.042 0.505073,0.19526 0.721763,0.35255 0.135701,0.0985 0.395618,0.51337 0.508419,0.68523 0.375514,0.54754 0.731179,1.10859 1.130276,1.63967 0.280249,0.37292 0.396904,0.50654 0.690979,0.86342 0.383216,0.47446 0.816857,0.90499 1.255497,1.32754 0.152299,0.14406 0.282152,0.30528 0.402951,0.47582 0.875517,1.31711 -0.987149,2.55528 -1.862667,1.23818 l 0,0 c 0.07561,0.0835 -0.07769,-0.0932 -0.09208,-0.10324 -0.500717,-0.48242 -0.992798,-0.97652 -1.431021,-1.51739 -0.333595,-0.40615 -0.456528,-0.54675 -0.775302,-0.97263 -0.418803,-0.55953 -0.79514,-1.14827 -1.189143,-1.72507 -0.05335,-0.0815 -0.122775,-0.15443 -0.160024,-0.2444 -0.01063,-0.0258 0.04825,0.0285 0.0745,0.0379 0.167022,0.0594 0.32735,0.16336 0.504564,0.16813 0.18625,0.005 0.364414,-0.0809 0.541121,-0.13999 0.0069,-0.002 0.208888,-0.19162 -0.02052,0.008 -0.684434,0.67756 -1.353044,1.37125 -2.039525,2.04684 -0.564534,0.57653 -1.139024,1.14808 -1.616646,1.8012 -0.991198,1.23241 -2.73408,-0.16936 -1.742882,-1.40177 z"
         id="path3141"
         style="color:#000000;fill:#999999;fill-opacity:1;fill-rule:nonzero;stroke:none;stroke-width:20;marker:none;visibility:visible;display:inline;overflow:visible;enable-background:accumulate" />
    </g>
    <g
       transform="matrix(3.0975772,0,0,3.0975772,103.2921,-2072.0422)"
       id="g3143"
       style="fill:#999999">
      <path
         sodipodi:type="arc"
         style="color:#000000;fill:#999999;fill-opacity:1;fill-rule:nonzero;stroke:none;stroke-width:20;marker:none;visibility:visible;display:inline;overflow:visible;enable-background:accumulate"
         id="path3145"
         sodipodi:cx="30.444811"
         sodipodi:cy="144.31631"
         sodipodi:rx="7.1169686"
         sodipodi:ry="7.1169686"
         d="m 37.561779,144.31631 c 0,3.9306 -3.186375,7.11697 -7.116968,7.11697 -3.930593,0 -7.116969,-3.18637 -7.116969,-7.11697 0,-3.93059 3.186376,-7.11696 7.116969,-7.11696 3.930593,0 7.116968,3.18637 7.116968,7.11696 z"
         transform="translate(0,812.36218)" />
      <path
         style="color:#000000;fill:#999999;fill-opacity:1;fill-rule:nonzero;stroke:none;stroke-width:20;marker:none;visibility:visible;display:inline;overflow:visible;enable-background:accumulate"
         id="path3147"
         d="m 31.852626,149.98193 c -0.03842,0.61054 -0.03702,1.22306 -0.04248,1.83456 -0.0084,1.36606 -0.008,2.73215 -0.0083,4.09823 0.0062,1.23397 -0.0116,2.46817 0.0085,3.70203 0.02204,0.85919 0.04251,1.71839 0.05387,2.57779 0.0061,0.51084 0.0079,1.02172 0.0084,1.5326 1.1e-5,0.0499 2.1e-5,0.0997 3.1e-5,0.14961 3.25e-4,1.58155 -2.236322,1.582 -2.236647,4.6e-4 l 0,0 c -10e-6,-0.0493 -2e-5,-0.0986 -3e-5,-0.14789 -4.89e-4,-0.50177 -0.0022,-1.00354 -0.0082,-1.50527 -0.01129,-0.85729 -0.03199,-1.71436 -0.05377,-2.57144 -0.01965,-1.24601 -0.0034,-2.49231 -0.0088,-3.73843 3.28e-4,-1.37257 -1.14e-4,-2.74515 0.0084,-4.1177 0.0064,-0.71017 -6.27e-4,-1.42312 0.06487,-2.13086 0.223665,-1.56565 2.437833,-1.24934 2.214168,0.31631 z"
         inkscape:connector-curvature="0"
         transform="translate(0,812.36218)" />
      <path
         style="color:#000000;fill:#999999;fill-opacity:1;fill-rule:nonzero;stroke:none;stroke-width:20;marker:none;visibility:visible;display:inline;overflow:visible;enable-background:accumulate"
         id="path3149"
         d="m 26.414646,980.89032 c 0.370959,-0.55185 0.682878,-1.14228 1.02263,-1.7139 0.450646,-0.80432 0.936682,-1.58811 1.388821,-2.39146 0.270154,-0.45432 0.507042,-0.9273 0.769371,-1.38592 0.47327,-0.69784 0.86758,-0.75003 1.783775,-0.41669 0.254454,0.0926 0.493304,0.69455 0.605515,0.94639 0.323739,0.74099 0.636853,1.4864 0.976402,2.22039 0.259895,0.56731 0.529039,1.13034 0.793857,1.69538 0.124463,0.27881 0.229859,0.5661 0.301304,0.86293 0.03964,0.1695 0.111226,0.3261 0.152438,0.49628 0.01944,0.0803 0.03126,0.16224 0.04689,0.24336 0.03455,0.26146 0.02038,0.13492 0.04352,0.37952 0.143177,1.57506 -2.084286,1.77754 -2.227463,0.20249 l 0,0 c -0.01116,-0.13228 -0.0048,-0.0672 -0.01901,-0.19524 -0.02276,-0.2242 -0.156969,-0.4263 -0.182474,-0.65358 0.02841,0.0517 -0.02151,-0.075 -0.02647,-0.0885 -0.03696,-0.10031 -0.06906,-0.20144 -0.114169,-0.29847 -0.266271,-0.56872 -0.537425,-1.13519 -0.798869,-1.70615 -0.343316,-0.74406 -0.662598,-1.49846 -0.989688,-2.2497 -0.03068,-0.0692 -0.06252,-0.13787 -0.09205,-0.20755 -0.08809,-0.20784 0.107448,0.13878 0.216159,0.16234 0.3114,0.0675 1.268843,0.31357 1.467927,-0.27592 -0.262769,0.44966 -0.48775,0.92118 -0.75835,1.36659 -0.461576,0.81837 -0.955118,1.61824 -1.415446,2.43742 -0.381098,0.63935 -0.726118,1.30303 -1.155303,1.91198 -0.948929,1.26524 -2.738247,-0.0768 -1.789318,-1.34199 z"
         inkscape:connector-curvature="0" />
      <path
         style="color:#000000;fill:#999999;fill-opacity:1;fill-rule:nonzero;stroke:none;stroke-width:20;marker:none;visibility:visible;display:inline;overflow:visible;enable-background:accumulate"
         id="path3151"
         d="m 25.925933,967.37552 c 0.522776,-0.70998 1.146103,-1.33559 1.761268,-1.96409 0.693832,-0.68423 1.371616,-1.38464 2.063395,-2.07085 0.357748,-0.3203 0.738056,-0.58986 1.275049,-0.50466 0.264448,0.042 0.505073,0.19526 0.721763,0.35255 0.135701,0.0985 0.395618,0.51337 0.508419,0.68523 0.375514,0.54754 0.731179,1.10859 1.130276,1.63967 0.280249,0.37292 0.396904,0.50654 0.690979,0.86342 0.383216,0.47446 0.816857,0.90499 1.255497,1.32754 0.152299,0.14406 0.282152,0.30528 0.402951,0.47582 0.875517,1.31711 -0.987149,2.55528 -1.862667,1.23818 l 0,0 c 0.07561,0.0835 -0.07769,-0.0932 -0.09208,-0.10324 -0.500717,-0.48242 -0.992798,-0.97652 -1.431021,-1.51739 -0.333595,-0.40615 -0.456528,-0.54675 -0.775302,-0.97263 -0.418803,-0.55953 -0.79514,-1.14827 -1.189143,-1.72507 -0.05335,-0.0815 -0.122775,-0.15443 -0.160024,-0.2444 -0.01063,-0.0258 0.04825,0.0285 0.0745,0.0379 0.167022,0.0594 0.32735,0.16336 0.504564,0.16813 0.18625,0.005 0.364414,-0.0809 0.541121,-0.13999 0.0069,-0.002 0.208888,-0.19162 -0.02052,0.008 -0.684434,0.67756 -1.353044,1.37125 -2.039525,2.04684 -0.564534,0.57653 -1.139024,1.14808 -1.616646,1.8012 -0.991198,1.23241 -2.73408,-0.16936 -1.742882,-1.40177 z"
         inkscape:connector-curvature="0" />
    </g>
    <g
       transform="matrix(0,-3.0975772,3.0975772,0,-2848.2951,965.74999)"
       id="g3153"
       style="fill:#999999">
      <path
         sodipodi:type="arc"
         style="color:#000000;fill:#999999;fill-opacity:1;fill-rule:nonzero;stroke:none;stroke-width:20;marker:none;visibility:visible;display:inline;overflow:visible;enable-background:accumulate"
         id="path3155"
         sodipodi:cx="30.444811"
         sodipodi:cy="144.31631"
         sodipodi:rx="7.1169686"
         sodipodi:ry="7.1169686"
         d="m 37.561779,144.31631 c 0,3.9306 -3.186375,7.11697 -7.116968,7.11697 -3.930593,0 -7.116969,-3.18637 -7.116969,-7.11697 0,-3.93059 3.186376,-7.11696 7.116969,-7.11696 3.930593,0 7.116968,3.18637 7.116968,7.11696 z"
         transform="translate(0,812.36218)" />
      <path
         style="color:#000000;fill:#999999;fill-opacity:1;fill-rule:nonzero;stroke:none;stroke-width:20;marker:none;visibility:visible;display:inline;overflow:visible;enable-background:accumulate"
         id="path3157"
         d="m 31.852626,149.98193 c -0.03842,0.61054 -0.03702,1.22306 -0.04248,1.83456 -0.0084,1.36606 -0.008,2.73215 -0.0083,4.09823 0.0062,1.23397 -0.0116,2.46817 0.0085,3.70203 0.02204,0.85919 0.04251,1.71839 0.05387,2.57779 0.0061,0.51084 0.0079,1.02172 0.0084,1.5326 1.1e-5,0.0499 2.1e-5,0.0997 3.1e-5,0.14961 3.25e-4,1.58155 -2.236322,1.582 -2.236647,4.6e-4 l 0,0 c -10e-6,-0.0493 -2e-5,-0.0986 -3e-5,-0.14789 -4.89e-4,-0.50177 -0.0022,-1.00354 -0.0082,-1.50527 -0.01129,-0.85729 -0.03199,-1.71436 -0.05377,-2.57144 -0.01965,-1.24601 -0.0034,-2.49231 -0.0088,-3.73843 3.28e-4,-1.37257 -1.14e-4,-2.74515 0.0084,-4.1177 0.0064,-0.71017 -6.27e-4,-1.42312 0.06487,-2.13086 0.223665,-1.56565 2.437833,-1.24934 2.214168,0.31631 z"
         inkscape:connector-curvature="0"
         transform="translate(0,812.36218)" />
      <path
         style="color:#000000;fill:#999999;fill-opacity:1;fill-rule:nonzero;stroke:none;stroke-width:20;marker:none;visibility:visible;display:inline;overflow:visible;enable-background:accumulate"
         id="path3159"
         d="m 26.414646,980.89032 c 0.370959,-0.55185 0.682878,-1.14228 1.02263,-1.7139 0.450646,-0.80432 0.936682,-1.58811 1.388821,-2.39146 0.270154,-0.45432 0.507042,-0.9273 0.769371,-1.38592 0.47327,-0.69784 0.86758,-0.75003 1.783775,-0.41669 0.254454,0.0926 0.493304,0.69455 0.605515,0.94639 0.323739,0.74099 0.636853,1.4864 0.976402,2.22039 0.259895,0.56731 0.529039,1.13034 0.793857,1.69538 0.124463,0.27881 0.229859,0.5661 0.301304,0.86293 0.03964,0.1695 0.111226,0.3261 0.152438,0.49628 0.01944,0.0803 0.03126,0.16224 0.04689,0.24336 0.03455,0.26146 0.02038,0.13492 0.04352,0.37952 0.143177,1.57506 -2.084286,1.77754 -2.227463,0.20249 l 0,0 c -0.01116,-0.13228 -0.0048,-0.0672 -0.01901,-0.19524 -0.02276,-0.2242 -0.156969,-0.4263 -0.182474,-0.65358 0.02841,0.0517 -0.02151,-0.075 -0.02647,-0.0885 -0.03696,-0.10031 -0.06906,-0.20144 -0.114169,-0.29847 -0.266271,-0.56872 -0.537425,-1.13519 -0.798869,-1.70615 -0.343316,-0.74406 -0.662598,-1.49846 -0.989688,-2.2497 -0.03068,-0.0692 -0.06252,-0.13787 -0.09205,-0.20755 -0.08809,-0.20784 0.107448,0.13878 0.216159,0.16234 0.3114,0.0675 1.268843,0.31357 1.467927,-0.27592 -0.262769,0.44966 -0.48775,0.92118 -0.75835,1.36659 -0.461576,0.81837 -0.955118,1.61824 -1.415446,2.43742 -0.381098,0.63935 -0.726118,1.30303 -1.155303,1.91198 -0.948929,1.26524 -2.738247,-0.0768 -1.789318,-1.34199 z"
         inkscape:connector-curvature="0" />
      <path
         style="color:#000000;fill:#999999;fill-opacity:1;fill-rule:nonzero;stroke:none;stroke-width:20;marker:none;visibility:visible;display:inline;overflow:visible;enable-background:accumulate"
         id="path3161"
         d="m 25.925933,967.37552 c 0.522776,-0.70998 1.146103,-1.33559 1.761268,-1.96409 0.693832,-0.68423 1.371616,-1.38464 2.063395,-2.07085 0.357748,-0.3203 0.738056,-0.58986 1.275049,-0.50466 0.264448,0.042 0.505073,0.19526 0.721763,0.35255 0.135701,0.0985 0.395618,0.51337 0.508419,0.68523 0.375514,0.54754 0.731179,1.10859 1.130276,1.63967 0.280249,0.37292 0.396904,0.50654 0.690979,0.86342 0.383216,0.47446 0.816857,0.90499 1.255497,1.32754 0.152299,0.14406 0.282152,0.30528 0.402951,0.47582 0.875517,1.31711 -0.987149,2.55528 -1.862667,1.23818 l 0,0 c 0.07561,0.0835 -0.07769,-0.0932 -0.09208,-0.10324 -0.500717,-0.48242 -0.992798,-0.97652 -1.431021,-1.51739 -0.333595,-0.40615 -0.456528,-0.54675 -0.775302,-0.97263 -0.418803,-0.55953 -0.79514,-1.14827 -1.189143,-1.72507 -0.05335,-0.0815 -0.122775,-0.15443 -0.160024,-0.2444 -0.01063,-0.0258 0.04825,0.0285 0.0745,0.0379 0.167022,0.0594 0.32735,0.16336 0.504564,0.16813 0.18625,0.005 0.364414,-0.0809 0.541121,-0.13999 0.0069,-0.002 0.208888,-0.19162 -0.02052,0.008 -0.684434,0.67756 -1.353044,1.37125 -2.039525,2.04684 -0.564534,0.57653 -1.139024,1.14808 -1.616646,1.8012 -0.991198,1.23241 -2.73408,-0.16936 -1.742882,-1.40177 z"
         inkscape:connector-curvature="0" />
    </g>
    <g
       id="g3005"
       transform="matrix(3.0975772,0,0,3.0975772,-52.885821,-2013.9203)">
      <path
         transform="translate(0,812.36218)"
         d="m 37.561779,144.31631 c 0,3.9306 -3.186375,7.11697 -7.116968,7.11697 -3.930593,0 -7.116969,-3.18637 -7.116969,-7.11697 0,-3.93059 3.186376,-7.11696 7.116969,-7.11696 3.930593,0 7.116968,3.18637 7.116968,7.11696 z"
         sodipodi:ry="7.1169686"
         sodipodi:rx="7.1169686"
         sodipodi:cy="144.31631"
         sodipodi:cx="30.444811"
         id="path2985"
         style="color:#000000;fill:#000000;fill-opacity:1;fill-rule:nonzero;stroke:none;stroke-width:20;marker:none;visibility:visible;display:inline;overflow:visible;enable-background:accumulate"
         sodipodi:type="arc" />
      <path
         transform="translate(0,812.36218)"
         inkscape:connector-curvature="0"
         d="m 31.852626,149.98193 c -0.03842,0.61054 -0.03702,1.22306 -0.04248,1.83456 -0.0084,1.36606 -0.008,2.73215 -0.0083,4.09823 0.0062,1.23397 -0.0116,2.46817 0.0085,3.70203 0.02204,0.85919 0.04251,1.71839 0.05387,2.57779 0.0061,0.51084 0.0079,1.02172 0.0084,1.5326 1.1e-5,0.0499 2.1e-5,0.0997 3.1e-5,0.14961 3.25e-4,1.58155 -2.236322,1.582 -2.236647,4.6e-4 l 0,0 c -10e-6,-0.0493 -2e-5,-0.0986 -3e-5,-0.14789 -4.89e-4,-0.50177 -0.0022,-1.00354 -0.0082,-1.50527 -0.01129,-0.85729 -0.03199,-1.71436 -0.05377,-2.57144 -0.01965,-1.24601 -0.0034,-2.49231 -0.0088,-3.73843 3.28e-4,-1.37257 -1.14e-4,-2.74515 0.0084,-4.1177 0.0064,-0.71017 -6.27e-4,-1.42312 0.06487,-2.13086 0.223665,-1.56565 2.437833,-1.24934 2.214168,0.31631 z"
         id="path2993"
         style="color:#000000;fill:#000000;fill-opacity:1;fill-rule:nonzero;stroke:none;stroke-width:20;marker:none;visibility:visible;display:inline;overflow:visible;enable-background:accumulate" />
      <path
         inkscape:connector-curvature="0"
         d="m 26.414646,980.89032 c 0.370959,-0.55185 0.682878,-1.14228 1.02263,-1.7139 0.450646,-0.80432 0.936682,-1.58811 1.388821,-2.39146 0.270154,-0.45432 0.507042,-0.9273 0.769371,-1.38592 0.47327,-0.69784 0.86758,-0.75003 1.783775,-0.41669 0.254454,0.0926 0.493304,0.69455 0.605515,0.94639 0.323739,0.74099 0.636853,1.4864 0.976402,2.22039 0.259895,0.56731 0.529039,1.13034 0.793857,1.69538 0.124463,0.27881 0.229859,0.5661 0.301304,0.86293 0.03964,0.1695 0.111226,0.3261 0.152438,0.49628 0.01944,0.0803 0.03126,0.16224 0.04689,0.24336 0.03455,0.26146 0.02038,0.13492 0.04352,0.37952 0.143177,1.57506 -2.084286,1.77754 -2.227463,0.20249 l 0,0 c -0.01116,-0.13228 -0.0048,-0.0672 -0.01901,-0.19524 -0.02276,-0.2242 -0.156969,-0.4263 -0.182474,-0.65358 0.02841,0.0517 -0.02151,-0.075 -0.02647,-0.0885 -0.03696,-0.10031 -0.06906,-0.20144 -0.114169,-0.29847 -0.266271,-0.56872 -0.537425,-1.13519 -0.798869,-1.70615 -0.343316,-0.74406 -0.662598,-1.49846 -0.989688,-2.2497 -0.03068,-0.0692 -0.06252,-0.13787 -0.09205,-0.20755 -0.08809,-0.20784 0.107448,0.13878 0.216159,0.16234 0.3114,0.0675 1.268843,0.31357 1.467927,-0.27592 -0.262769,0.44966 -0.48775,0.92118 -0.75835,1.36659 -0.461576,0.81837 -0.955118,1.61824 -1.415446,2.43742 -0.381098,0.63935 -0.726118,1.30303 -1.155303,1.91198 -0.948929,1.26524 -2.738247,-0.0768 -1.789318,-1.34199 z"
         id="path2999"
         style="color:#000000;fill:#000000;fill-opacity:1;fill-rule:nonzero;stroke:none;stroke-width:20;marker:none;visibility:visible;display:inline;overflow:visible;enable-background:accumulate" />
      <path
         inkscape:connector-curvature="0"
         d="m 25.925933,967.37552 c 0.522776,-0.70998 1.146103,-1.33559 1.761268,-1.96409 0.693832,-0.68423 1.371616,-1.38464 2.063395,-2.07085 0.357748,-0.3203 0.738056,-0.58986 1.275049,-0.50466 0.264448,0.042 0.505073,0.19526 0.721763,0.35255 0.135701,0.0985 0.395618,0.51337 0.508419,0.68523 0.375514,0.54754 0.731179,1.10859 1.130276,1.63967 0.280249,0.37292 0.396904,0.50654 0.690979,0.86342 0.383216,0.47446 0.816857,0.90499 1.255497,1.32754 0.152299,0.14406 0.282152,0.30528 0.402951,0.47582 0.875517,1.31711 -0.987149,2.55528 -1.862667,1.23818 l 0,0 c 0.07561,0.0835 -0.07769,-0.0932 -0.09208,-0.10324 -0.500717,-0.48242 -0.992798,-0.97652 -1.431021,-1.51739 -0.333595,-0.40615 -0.456528,-0.54675 -0.775302,-0.97263 -0.418803,-0.55953 -0.79514,-1.14827 -1.189143,-1.72507 -0.05335,-0.0815 -0.122775,-0.15443 -0.160024,-0.2444 -0.01063,-0.0258 0.04825,0.0285 0.0745,0.0379 0.167022,0.0594 0.32735,0.16336 0.504564,0.16813 0.18625,0.005 0.364414,-0.0809 0.541121,-0.13999 0.0069,-0.002 0.208888,-0.19162 -0.02052,0.008 -0.684434,0.67756 -1.353044,1.37125 -2.039525,2.04684 -0.564534,0.57653 -1.139024,1.14808 -1.616646,1.8012 -0.991198,1.23241 -2.73408,-0.16936 -1.742882,-1.40177 z"
         id="path3003"
         style="color:#000000;fill:#000000;fill-opacity:1;fill-rule:nonzero;stroke:none;stroke-width:20;marker:none;visibility:visible;display:inline;overflow:visible;enable-background:accumulate" />
    </g>
    <g
       transform="matrix(3.0975772,0,0,3.0975772,51.100999,-2013.9203)"
       id="use3011">
      <path
         sodipodi:type="arc"
         style="color:#000000;fill:#000000;fill-opacity:1;fill-rule:nonzero;stroke:none;stroke-width:20;marker:none;visibility:visible;display:inline;overflow:visible;enable-background:accumulate"
         id="path3045"
         sodipodi:cx="30.444811"
         sodipodi:cy="144.31631"
         sodipodi:rx="7.1169686"
         sodipodi:ry="7.1169686"
         d="m 37.561779,144.31631 c 0,3.9306 -3.186375,7.11697 -7.116968,7.11697 -3.930593,0 -7.116969,-3.18637 -7.116969,-7.11697 0,-3.93059 3.186376,-7.11696 7.116969,-7.11696 3.930593,0 7.116968,3.18637 7.116968,7.11696 z"
         transform="translate(0,812.36218)" />
      <path
         style="color:#000000;fill:#000000;fill-opacity:1;fill-rule:nonzero;stroke:none;stroke-width:20;marker:none;visibility:visible;display:inline;overflow:visible;enable-background:accumulate"
         id="path3047"
         d="m 31.852626,149.98193 c -0.03842,0.61054 -0.03702,1.22306 -0.04248,1.83456 -0.0084,1.36606 -0.008,2.73215 -0.0083,4.09823 0.0062,1.23397 -0.0116,2.46817 0.0085,3.70203 0.02204,0.85919 0.04251,1.71839 0.05387,2.57779 0.0061,0.51084 0.0079,1.02172 0.0084,1.5326 1.1e-5,0.0499 2.1e-5,0.0997 3.1e-5,0.14961 3.25e-4,1.58155 -2.236322,1.582 -2.236647,4.6e-4 l 0,0 c -10e-6,-0.0493 -2e-5,-0.0986 -3e-5,-0.14789 -4.89e-4,-0.50177 -0.0022,-1.00354 -0.0082,-1.50527 -0.01129,-0.85729 -0.03199,-1.71436 -0.05377,-2.57144 -0.01965,-1.24601 -0.0034,-2.49231 -0.0088,-3.73843 3.28e-4,-1.37257 -1.14e-4,-2.74515 0.0084,-4.1177 0.0064,-0.71017 -6.27e-4,-1.42312 0.06487,-2.13086 0.223665,-1.56565 2.437833,-1.24934 2.214168,0.31631 z"
         inkscape:connector-curvature="0"
         transform="translate(0,812.36218)" />
      <path
         style="color:#000000;fill:#000000;fill-opacity:1;fill-rule:nonzero;stroke:none;stroke-width:20;marker:none;visibility:visible;display:inline;overflow:visible;enable-background:accumulate"
         id="path3049"
         d="m 26.414646,980.89032 c 0.370959,-0.55185 0.682878,-1.14228 1.02263,-1.7139 0.450646,-0.80432 0.936682,-1.58811 1.388821,-2.39146 0.270154,-0.45432 0.507042,-0.9273 0.769371,-1.38592 0.47327,-0.69784 0.86758,-0.75003 1.783775,-0.41669 0.254454,0.0926 0.493304,0.69455 0.605515,0.94639 0.323739,0.74099 0.636853,1.4864 0.976402,2.22039 0.259895,0.56731 0.529039,1.13034 0.793857,1.69538 0.124463,0.27881 0.229859,0.5661 0.301304,0.86293 0.03964,0.1695 0.111226,0.3261 0.152438,0.49628 0.01944,0.0803 0.03126,0.16224 0.04689,0.24336 0.03455,0.26146 0.02038,0.13492 0.04352,0.37952 0.143177,1.57506 -2.084286,1.77754 -2.227463,0.20249 l 0,0 c -0.01116,-0.13228 -0.0048,-0.0672 -0.01901,-0.19524 -0.02276,-0.2242 -0.156969,-0.4263 -0.182474,-0.65358 0.02841,0.0517 -0.02151,-0.075 -0.02647,-0.0885 -0.03696,-0.10031 -0.06906,-0.20144 -0.114169,-0.29847 -0.266271,-0.56872 -0.537425,-1.13519 -0.798869,-1.70615 -0.343316,-0.74406 -0.662598,-1.49846 -0.989688,-2.2497 -0.03068,-0.0692 -0.06252,-0.13787 -0.09205,-0.20755 -0.08809,-0.20784 0.107448,0.13878 0.216159,0.16234 0.3114,0.0675 1.268843,0.31357 1.467927,-0.27592 -0.262769,0.44966 -0.48775,0.92118 -0.75835,1.36659 -0.461576,0.81837 -0.955118,1.61824 -1.415446,2.43742 -0.381098,0.63935 -0.726118,1.30303 -1.155303,1.91198 -0.948929,1.26524 -2.738247,-0.0768 -1.789318,-1.34199 z"
         inkscape:connector-curvature="0" />
      <path
         style="color:#000000;fill:#000000;fill-opacity:1;fill-rule:nonzero;stroke:none;stroke-width:20;marker:none;visibility:visible;display:inline;overflow:visible;enable-background:accumulate"
         id="path3051"
         d="m 25.925933,967.37552 c 0.522776,-0.70998 1.146103,-1.33559 1.761268,-1.96409 0.693832,-0.68423 1.371616,-1.38464 2.063395,-2.07085 0.357748,-0.3203 0.738056,-0.58986 1.275049,-0.50466 0.264448,0.042 0.505073,0.19526 0.721763,0.35255 0.135701,0.0985 0.395618,0.51337 0.508419,0.68523 0.375514,0.54754 0.731179,1.10859 1.130276,1.63967 0.280249,0.37292 0.396904,0.50654 0.690979,0.86342 0.383216,0.47446 0.816857,0.90499 1.255497,1.32754 0.152299,0.14406 0.282152,0.30528 0.402951,0.47582 0.875517,1.31711 -0.987149,2.55528 -1.862667,1.23818 l 0,0 c 0.07561,0.0835 -0.07769,-0.0932 -0.09208,-0.10324 -0.500717,-0.48242 -0.992798,-0.97652 -1.431021,-1.51739 -0.333595,-0.40615 -0.456528,-0.54675 -0.775302,-0.97263 -0.418803,-0.55953 -0.79514,-1.14827 -1.189143,-1.72507 -0.05335,-0.0815 -0.122775,-0.15443 -0.160024,-0.2444 -0.01063,-0.0258 0.04825,0.0285 0.0745,0.0379 0.167022,0.0594 0.32735,0.16336 0.504564,0.16813 0.18625,0.005 0.364414,-0.0809 0.541121,-0.13999 0.0069,-0.002 0.208888,-0.19162 -0.02052,0.008 -0.684434,0.67756 -1.353044,1.37125 -2.039525,2.04684 -0.564534,0.57653 -1.139024,1.14808 -1.616646,1.8012 -0.991198,1.23241 -2.73408,-0.16936 -1.742882,-1.40177 z"
         inkscape:connector-curvature="0" />
    </g>
    <g
       transform="matrix(0,-3.0975772,3.0975772,0,-2900.4862,1023.8719)"
       id="use3015">
      <path
         sodipodi:type="arc"
         style="color:#000000;fill:#000000;fill-opacity:1;fill-rule:nonzero;stroke:none;stroke-width:20;marker:none;visibility:visible;display:inline;overflow:visible;enable-background:accumulate"
         id="path3035"
         sodipodi:cx="30.444811"
         sodipodi:cy="144.31631"
         sodipodi:rx="7.1169686"
         sodipodi:ry="7.1169686"
         d="m 37.561779,144.31631 c 0,3.9306 -3.186375,7.11697 -7.116968,7.11697 -3.930593,0 -7.116969,-3.18637 -7.116969,-7.11697 0,-3.93059 3.186376,-7.11696 7.116969,-7.11696 3.930593,0 7.116968,3.18637 7.116968,7.11696 z"
         transform="translate(0,812.36218)" />
      <path
         style="color:#000000;fill:#000000;fill-opacity:1;fill-rule:nonzero;stroke:none;stroke-width:20;marker:none;visibility:visible;display:inline;overflow:visible;enable-background:accumulate"
         id="path3037"
         d="m 31.852626,149.98193 c -0.03842,0.61054 -0.03702,1.22306 -0.04248,1.83456 -0.0084,1.36606 -0.008,2.73215 -0.0083,4.09823 0.0062,1.23397 -0.0116,2.46817 0.0085,3.70203 0.02204,0.85919 0.04251,1.71839 0.05387,2.57779 0.0061,0.51084 0.0079,1.02172 0.0084,1.5326 1.1e-5,0.0499 2.1e-5,0.0997 3.1e-5,0.14961 3.25e-4,1.58155 -2.236322,1.582 -2.236647,4.6e-4 l 0,0 c -10e-6,-0.0493 -2e-5,-0.0986 -3e-5,-0.14789 -4.89e-4,-0.50177 -0.0022,-1.00354 -0.0082,-1.50527 -0.01129,-0.85729 -0.03199,-1.71436 -0.05377,-2.57144 -0.01965,-1.24601 -0.0034,-2.49231 -0.0088,-3.73843 3.28e-4,-1.37257 -1.14e-4,-2.74515 0.0084,-4.1177 0.0064,-0.71017 -6.27e-4,-1.42312 0.06487,-2.13086 0.223665,-1.56565 2.437833,-1.24934 2.214168,0.31631 z"
         inkscape:connector-curvature="0"
         transform="translate(0,812.36218)" />
      <path
         style="color:#000000;fill:#000000;fill-opacity:1;fill-rule:nonzero;stroke:none;stroke-width:20;marker:none;visibility:visible;display:inline;overflow:visible;enable-background:accumulate"
         id="path3039"
         d="m 26.414646,980.89032 c 0.370959,-0.55185 0.682878,-1.14228 1.02263,-1.7139 0.450646,-0.80432 0.936682,-1.58811 1.388821,-2.39146 0.270154,-0.45432 0.507042,-0.9273 0.769371,-1.38592 0.47327,-0.69784 0.86758,-0.75003 1.783775,-0.41669 0.254454,0.0926 0.493304,0.69455 0.605515,0.94639 0.323739,0.74099 0.636853,1.4864 0.976402,2.22039 0.259895,0.56731 0.529039,1.13034 0.793857,1.69538 0.124463,0.27881 0.229859,0.5661 0.301304,0.86293 0.03964,0.1695 0.111226,0.3261 0.152438,0.49628 0.01944,0.0803 0.03126,0.16224 0.04689,0.24336 0.03455,0.26146 0.02038,0.13492 0.04352,0.37952 0.143177,1.57506 -2.084286,1.77754 -2.227463,0.20249 l 0,0 c -0.01116,-0.13228 -0.0048,-0.0672 -0.01901,-0.19524 -0.02276,-0.2242 -0.156969,-0.4263 -0.182474,-0.65358 0.02841,0.0517 -0.02151,-0.075 -0.02647,-0.0885 -0.03696,-0.10031 -0.06906,-0.20144 -0.114169,-0.29847 -0.266271,-0.56872 -0.537425,-1.13519 -0.798869,-1.70615 -0.343316,-0.74406 -0.662598,-1.49846 -0.989688,-2.2497 -0.03068,-0.0692 -0.06252,-0.13787 -0.09205,-0.20755 -0.08809,-0.20784 0.107448,0.13878 0.216159,0.16234 0.3114,0.0675 1.268843,0.31357 1.467927,-0.27592 -0.262769,0.44966 -0.48775,0.92118 -0.75835,1.36659 -0.461576,0.81837 -0.955118,1.61824 -1.415446,2.43742 -0.381098,0.63935 -0.726118,1.30303 -1.155303,1.91198 -0.948929,1.26524 -2.738247,-0.0768 -1.789318,-1.34199 z"
         inkscape:connector-curvature="0" />
      <path
         style="color:#000000;fill:#000000;fill-opacity:1;fill-rule:nonzero;stroke:none;stroke-width:20;marker:none;visibility:visible;display:inline;overflow:visible;enable-background:accumulate"
         id="path3041"
         d="m 25.925933,967.37552 c 0.522776,-0.70998 1.146103,-1.33559 1.761268,-1.96409 0.693832,-0.68423 1.371616,-1.38464 2.063395,-2.07085 0.357748,-0.3203 0.738056,-0.58986 1.275049,-0.50466 0.264448,0.042 0.505073,0.19526 0.721763,0.35255 0.135701,0.0985 0.395618,0.51337 0.508419,0.68523 0.375514,0.54754 0.731179,1.10859 1.130276,1.63967 0.280249,0.37292 0.396904,0.50654 0.690979,0.86342 0.383216,0.47446 0.816857,0.90499 1.255497,1.32754 0.152299,0.14406 0.282152,0.30528 0.402951,0.47582 0.875517,1.31711 -0.987149,2.55528 -1.862667,1.23818 l 0,0 c 0.07561,0.0835 -0.07769,-0.0932 -0.09208,-0.10324 -0.500717,-0.48242 -0.992798,-0.97652 -1.431021,-1.51739 -0.333595,-0.40615 -0.456528,-0.54675 -0.775302,-0.97263 -0.418803,-0.55953 -0.79514,-1.14827 -1.189143,-1.72507 -0.05335,-0.0815 -0.122775,-0.15443 -0.160024,-0.2444 -0.01063,-0.0258 0.04825,0.0285 0.0745,0.0379 0.167022,0.0594 0.32735,0.16336 0.504564,0.16813 0.18625,0.005 0.364414,-0.0809 0.541121,-0.13999 0.0069,-0.002 0.208888,-0.19162 -0.02052,0.008 -0.684434,0.67756 -1.353044,1.37125 -2.039525,2.04684 -0.564534,0.57653 -1.139024,1.14808 -1.616646,1.8012 -0.991198,1.23241 -2.73408,-0.16936 -1.742882,-1.40177 z"
         inkscape:connector-curvature="0" />
    </g>
    <g
       id="g3163"
       transform="matrix(2.0716718,2.3028592,-2.3028592,2.0716718,2239.6677,-1172.9229)"
       style="fill:#4d4d4d">
      <path
         transform="translate(0,812.36218)"
         d="m 37.561779,144.31631 c 0,3.9306 -3.186375,7.11697 -7.116968,7.11697 -3.930593,0 -7.116969,-3.18637 -7.116969,-7.11697 0,-3.93059 3.186376,-7.11696 7.116969,-7.11696 3.930593,0 7.116968,3.18637 7.116968,7.11696 z"
         sodipodi:ry="7.1169686"
         sodipodi:rx="7.1169686"
         sodipodi:cy="144.31631"
         sodipodi:cx="30.444811"
         id="path3165"
         style="color:#000000;fill:#4d4d4d;fill-opacity:1;fill-rule:nonzero;stroke:none;stroke-width:20;marker:none;visibility:visible;display:inline;overflow:visible;enable-background:accumulate"
         sodipodi:type="arc" />
      <path
         transform="translate(0,812.36218)"
         inkscape:connector-curvature="0"
         d="m 31.852626,149.98193 c -0.03842,0.61054 -0.03702,1.22306 -0.04248,1.83456 -0.0084,1.36606 -0.008,2.73215 -0.0083,4.09823 0.0062,1.23397 -0.0116,2.46817 0.0085,3.70203 0.02204,0.85919 0.04251,1.71839 0.05387,2.57779 0.0061,0.51084 0.0079,1.02172 0.0084,1.5326 1.1e-5,0.0499 2.1e-5,0.0997 3.1e-5,0.14961 3.25e-4,1.58155 -2.236322,1.582 -2.236647,4.6e-4 l 0,0 c -10e-6,-0.0493 -2e-5,-0.0986 -3e-5,-0.14789 -4.89e-4,-0.50177 -0.0022,-1.00354 -0.0082,-1.50527 -0.01129,-0.85729 -0.03199,-1.71436 -0.05377,-2.57144 -0.01965,-1.24601 -0.0034,-2.49231 -0.0088,-3.73843 3.28e-4,-1.37257 -1.14e-4,-2.74515 0.0084,-4.1177 0.0064,-0.71017 -6.27e-4,-1.42312 0.06487,-2.13086 0.223665,-1.56565 2.437833,-1.24934 2.214168,0.31631 z"
         id="path3167"
         style="color:#000000;fill:#4d4d4d;fill-opacity:1;fill-rule:nonzero;stroke:none;stroke-width:20;marker:none;visibility:visible;display:inline;overflow:visible;enable-background:accumulate" />
      <path
         inkscape:connector-curvature="0"
         d="m 26.414646,980.89032 c 0.370959,-0.55185 0.682878,-1.14228 1.02263,-1.7139 0.450646,-0.80432 0.936682,-1.58811 1.388821,-2.39146 0.270154,-0.45432 0.507042,-0.9273 0.769371,-1.38592 0.47327,-0.69784 0.86758,-0.75003 1.783775,-0.41669 0.254454,0.0926 0.493304,0.69455 0.605515,0.94639 0.323739,0.74099 0.636853,1.4864 0.976402,2.22039 0.259895,0.56731 0.529039,1.13034 0.793857,1.69538 0.124463,0.27881 0.229859,0.5661 0.301304,0.86293 0.03964,0.1695 0.111226,0.3261 0.152438,0.49628 0.01944,0.0803 0.03126,0.16224 0.04689,0.24336 0.03455,0.26146 0.02038,0.13492 0.04352,0.37952 0.143177,1.57506 -2.084286,1.77754 -2.227463,0.20249 l 0,0 c -0.01116,-0.13228 -0.0048,-0.0672 -0.01901,-0.19524 -0.02276,-0.2242 -0.156969,-0.4263 -0.182474,-0.65358 0.02841,0.0517 -0.02151,-0.075 -0.02647,-0.0885 -0.03696,-0.10031 -0.06906,-0.20144 -0.114169,-0.29847 -0.266271,-0.56872 -0.537425,-1.13519 -0.798869,-1.70615 -0.343316,-0.74406 -0.662598,-1.49846 -0.989688,-2.2497 -0.03068,-0.0692 -0.06252,-0.13787 -0.09205,-0.20755 -0.08809,-0.20784 0.107448,0.13878 0.216159,0.16234 0.3114,0.0675 1.268843,0.31357 1.467927,-0.27592 -0.262769,0.44966 -0.48775,0.92118 -0.75835,1.36659 -0.461576,0.81837 -0.955118,1.61824 -1.415446,2.43742 -0.381098,0.63935 -0.726118,1.30303 -1.155303,1.91198 -0.948929,1.26524 -2.738247,-0.0768 -1.789318,-1.34199 z"
         id="path3169"
         style="color:#000000;fill:#4d4d4d;fill-opacity:1;fill-rule:nonzero;stroke:none;stroke-width:20;marker:none;visibility:visible;display:inline;overflow:visible;enable-background:accumulate" />
      <path
         inkscape:connector-curvature="0"
         d="m 25.925933,967.37552 c 0.522776,-0.70998 1.146103,-1.33559 1.761268,-1.96409 0.693832,-0.68423 1.371616,-1.38464 2.063395,-2.07085 0.357748,-0.3203 0.738056,-0.58986 1.275049,-0.50466 0.264448,0.042 0.505073,0.19526 0.721763,0.35255 0.135701,0.0985 0.395618,0.51337 0.508419,0.68523 0.375514,0.54754 0.731179,1.10859 1.130276,1.63967 0.280249,0.37292 0.396904,0.50654 0.690979,0.86342 0.383216,0.47446 0.816857,0.90499 1.255497,1.32754 0.152299,0.14406 0.282152,0.30528 0.402951,0.47582 0.875517,1.31711 -0.987149,2.55528 -1.862667,1.23818 l 0,0 c 0.07561,0.0835 -0.07769,-0.0932 -0.09208,-0.10324 -0.500717,-0.48242 -0.992798,-0.97652 -1.431021,-1.51739 -0.333595,-0.40615 -0.456528,-0.54675 -0.775302,-0.97263 -0.418803,-0.55953 -0.79514,-1.14827 -1.189143,-1.72507 -0.05335,-0.0815 -0.122775,-0.15443 -0.160024,-0.2444 -0.01063,-0.0258 0.04825,0.0285 0.0745,0.0379 0.167022,0.0594 0.32735,0.16336 0.504564,0.16813 0.18625,0.005 0.364414,-0.0809 0.541121,-0.13999 0.0069,-0.002 0.208888,-0.19162 -0.02052,0.008 -0.684434,0.67756 -1.353044,1.37125 -2.039525,2.04684 -0.564534,0.57653 -1.139024,1.14808 -1.616646,1.8012 -0.991198,1.23241 -2.73408,-0.16936 -1.742882,-1.40177 z"
         id="path3171"
         style="color:#000000;fill:#4d4d4d;fill-opacity:1;fill-rule:nonzero;stroke:none;stroke-width:20;marker:none;visibility:visible;display:inline;overflow:visible;enable-background:accumulate" />
    </g>
    <g
       style="fill:#4d4d4d"
       transform="matrix(2.0716718,2.3028592,-2.3028592,2.0716718,2340.4914,-1172.9229)"
       id="g3173">
      <path
         sodipodi:type="arc"
         style="color:#000000;fill:#4d4d4d;fill-opacity:1;fill-rule:nonzero;stroke:none;stroke-width:20;marker:none;visibility:visible;display:inline;overflow:visible;enable-background:accumulate"
         id="path3175"
         sodipodi:cx="30.444811"
         sodipodi:cy="144.31631"
         sodipodi:rx="7.1169686"
         sodipodi:ry="7.1169686"
         d="m 37.561779,144.31631 c 0,3.9306 -3.186375,7.11697 -7.116968,7.11697 -3.930593,0 -7.116969,-3.18637 -7.116969,-7.11697 0,-3.93059 3.186376,-7.11696 7.116969,-7.11696 3.930593,0 7.116968,3.18637 7.116968,7.11696 z"
         transform="translate(0,812.36218)" />
      <path
         style="color:#000000;fill:#4d4d4d;fill-opacity:1;fill-rule:nonzero;stroke:none;stroke-width:20;marker:none;visibility:visible;display:inline;overflow:visible;enable-background:accumulate"
         id="path3177"
         d="m 31.852626,149.98193 c -0.03842,0.61054 -0.03702,1.22306 -0.04248,1.83456 -0.0084,1.36606 -0.008,2.73215 -0.0083,4.09823 0.0062,1.23397 -0.0116,2.46817 0.0085,3.70203 0.02204,0.85919 0.04251,1.71839 0.05387,2.57779 0.0061,0.51084 0.0079,1.02172 0.0084,1.5326 1.1e-5,0.0499 2.1e-5,0.0997 3.1e-5,0.14961 3.25e-4,1.58155 -2.236322,1.582 -2.236647,4.6e-4 l 0,0 c -10e-6,-0.0493 -2e-5,-0.0986 -3e-5,-0.14789 -4.89e-4,-0.50177 -0.0022,-1.00354 -0.0082,-1.50527 -0.01129,-0.85729 -0.03199,-1.71436 -0.05377,-2.57144 -0.01965,-1.24601 -0.0034,-2.49231 -0.0088,-3.73843 3.28e-4,-1.37257 -1.14e-4,-2.74515 0.0084,-4.1177 0.0064,-0.71017 -6.27e-4,-1.42312 0.06487,-2.13086 0.223665,-1.56565 2.437833,-1.24934 2.214168,0.31631 z"
         inkscape:connector-curvature="0"
         transform="translate(0,812.36218)" />
      <path
         style="color:#000000;fill:#4d4d4d;fill-opacity:1;fill-rule:nonzero;stroke:none;stroke-width:20;marker:none;visibility:visible;display:inline;overflow:visible;enable-background:accumulate"
         id="path3179"
         d="m 26.414646,980.89032 c 0.370959,-0.55185 0.682878,-1.14228 1.02263,-1.7139 0.450646,-0.80432 0.936682,-1.58811 1.388821,-2.39146 0.270154,-0.45432 0.507042,-0.9273 0.769371,-1.38592 0.47327,-0.69784 0.86758,-0.75003 1.783775,-0.41669 0.254454,0.0926 0.493304,0.69455 0.605515,0.94639 0.323739,0.74099 0.636853,1.4864 0.976402,2.22039 0.259895,0.56731 0.529039,1.13034 0.793857,1.69538 0.124463,0.27881 0.229859,0.5661 0.301304,0.86293 0.03964,0.1695 0.111226,0.3261 0.152438,0.49628 0.01944,0.0803 0.03126,0.16224 0.04689,0.24336 0.03455,0.26146 0.02038,0.13492 0.04352,0.37952 0.143177,1.57506 -2.084286,1.77754 -2.227463,0.20249 l 0,0 c -0.01116,-0.13228 -0.0048,-0.0672 -0.01901,-0.19524 -0.02276,-0.2242 -0.156969,-0.4263 -0.182474,-0.65358 0.02841,0.0517 -0.02151,-0.075 -0.02647,-0.0885 -0.03696,-0.10031 -0.06906,-0.20144 -0.114169,-0.29847 -0.266271,-0.56872 -0.537425,-1.13519 -0.798869,-1.70615 -0.343316,-0.74406 -0.662598,-1.49846 -0.989688,-2.2497 -0.03068,-0.0692 -0.06252,-0.13787 -0.09205,-0.20755 -0.08809,-0.20784 0.107448,0.13878 0.216159,0.16234 0.3114,0.0675 1.268843,0.31357 1.467927,-0.27592 -0.262769,0.44966 -0.48775,0.92118 -0.75835,1.36659 -0.461576,0.81837 -0.955118,1.61824 -1.415446,2.43742 -0.381098,0.63935 -0.726118,1.30303 -1.155303,1.91198 -0.948929,1.26524 -2.738247,-0.0768 -1.789318,-1.34199 z"
         inkscape:connector-curvature="0" />
      <path
         style="color:#000000;fill:#4d4d4d;fill-opacity:1;fill-rule:nonzero;stroke:none;stroke-width:20;marker:none;visibility:visible;display:inline;overflow:visible;enable-background:accumulate"
         id="path3181"
         d="m 25.925933,967.37552 c 0.522776,-0.70998 1.146103,-1.33559 1.761268,-1.96409 0.693832,-0.68423 1.371616,-1.38464 2.063395,-2.07085 0.357748,-0.3203 0.738056,-0.58986 1.275049,-0.50466 0.264448,0.042 0.505073,0.19526 0.721763,0.35255 0.135701,0.0985 0.395618,0.51337 0.508419,0.68523 0.375514,0.54754 0.731179,1.10859 1.130276,1.63967 0.280249,0.37292 0.396904,0.50654 0.690979,0.86342 0.383216,0.47446 0.816857,0.90499 1.255497,1.32754 0.152299,0.14406 0.282152,0.30528 0.402951,0.47582 0.875517,1.31711 -0.987149,2.55528 -1.862667,1.23818 l 0,0 c 0.07561,0.0835 -0.07769,-0.0932 -0.09208,-0.10324 -0.500717,-0.48242 -0.992798,-0.97652 -1.431021,-1.51739 -0.333595,-0.40615 -0.456528,-0.54675 -0.775302,-0.97263 -0.418803,-0.55953 -0.79514,-1.14827 -1.189143,-1.72507 -0.05335,-0.0815 -0.122775,-0.15443 -0.160024,-0.2444 -0.01063,-0.0258 0.04825,0.0285 0.0745,0.0379 0.167022,0.0594 0.32735,0.16336 0.504564,0.16813 0.18625,0.005 0.364414,-0.0809 0.541121,-0.13999 0.0069,-0.002 0.208888,-0.19162 -0.02052,0.008 -0.684434,0.67756 -1.353044,1.37125 -2.039525,2.04684 -0.564534,0.57653 -1.139024,1.14808 -1.616646,1.8012 -0.991198,1.23241 -2.73408,-0.16936 -1.742882,-1.40177 z"
         inkscape:connector-curvature="0" />
    </g>
    <g
       id="g3183"
       transform="matrix(2.0716718,2.3028592,-2.3028592,2.0716718,2340.4914,-1081.1931)"
       style="fill:#4d4d4d">
      <path
         transform="translate(0,812.36218)"
         d="m 37.561779,144.31631 c 0,3.9306 -3.186375,7.11697 -7.116968,7.11697 -3.930593,0 -7.116969,-3.18637 -7.116969,-7.11697 0,-3.93059 3.186376,-7.11696 7.116969,-7.11696 3.930593,0 7.116968,3.18637 7.116968,7.11696 z"
         sodipodi:ry="7.1169686"
         sodipodi:rx="7.1169686"
         sodipodi:cy="144.31631"
         sodipodi:cx="30.444811"
         id="path3185"
         style="color:#000000;fill:#4d4d4d;fill-opacity:1;fill-rule:nonzero;stroke:none;stroke-width:20;marker:none;visibility:visible;display:inline;overflow:visible;enable-background:accumulate"
         sodipodi:type="arc" />
      <path
         transform="translate(0,812.36218)"
         inkscape:connector-curvature="0"
         d="m 31.852626,149.98193 c -0.03842,0.61054 -0.03702,1.22306 -0.04248,1.83456 -0.0084,1.36606 -0.008,2.73215 -0.0083,4.09823 0.0062,1.23397 -0.0116,2.46817 0.0085,3.70203 0.02204,0.85919 0.04251,1.71839 0.05387,2.57779 0.0061,0.51084 0.0079,1.02172 0.0084,1.5326 1.1e-5,0.0499 2.1e-5,0.0997 3.1e-5,0.14961 3.25e-4,1.58155 -2.236322,1.582 -2.236647,4.6e-4 l 0,0 c -10e-6,-0.0493 -2e-5,-0.0986 -3e-5,-0.14789 -4.89e-4,-0.50177 -0.0022,-1.00354 -0.0082,-1.50527 -0.01129,-0.85729 -0.03199,-1.71436 -0.05377,-2.57144 -0.01965,-1.24601 -0.0034,-2.49231 -0.0088,-3.73843 3.28e-4,-1.37257 -1.14e-4,-2.74515 0.0084,-4.1177 0.0064,-0.71017 -6.27e-4,-1.42312 0.06487,-2.13086 0.223665,-1.56565 2.437833,-1.24934 2.214168,0.31631 z"
         id="path3187"
         style="color:#000000;fill:#4d4d4d;fill-opacity:1;fill-rule:nonzero;stroke:none;stroke-width:20;marker:none;visibility:visible;display:inline;overflow:visible;enable-background:accumulate" />
      <path
         inkscape:connector-curvature="0"
         d="m 26.414646,980.89032 c 0.370959,-0.55185 0.682878,-1.14228 1.02263,-1.7139 0.450646,-0.80432 0.936682,-1.58811 1.388821,-2.39146 0.270154,-0.45432 0.507042,-0.9273 0.769371,-1.38592 0.47327,-0.69784 0.86758,-0.75003 1.783775,-0.41669 0.254454,0.0926 0.493304,0.69455 0.605515,0.94639 0.323739,0.74099 0.636853,1.4864 0.976402,2.22039 0.259895,0.56731 0.529039,1.13034 0.793857,1.69538 0.124463,0.27881 0.229859,0.5661 0.301304,0.86293 0.03964,0.1695 0.111226,0.3261 0.152438,0.49628 0.01944,0.0803 0.03126,0.16224 0.04689,0.24336 0.03455,0.26146 0.02038,0.13492 0.04352,0.37952 0.143177,1.57506 -2.084286,1.77754 -2.227463,0.20249 l 0,0 c -0.01116,-0.13228 -0.0048,-0.0672 -0.01901,-0.19524 -0.02276,-0.2242 -0.156969,-0.4263 -0.182474,-0.65358 0.02841,0.0517 -0.02151,-0.075 -0.02647,-0.0885 -0.03696,-0.10031 -0.06906,-0.20144 -0.114169,-0.29847 -0.266271,-0.56872 -0.537425,-1.13519 -0.798869,-1.70615 -0.343316,-0.74406 -0.662598,-1.49846 -0.989688,-2.2497 -0.03068,-0.0692 -0.06252,-0.13787 -0.09205,-0.20755 -0.08809,-0.20784 0.107448,0.13878 0.216159,0.16234 0.3114,0.0675 1.268843,0.31357 1.467927,-0.27592 -0.262769,0.44966 -0.48775,0.92118 -0.75835,1.36659 -0.461576,0.81837 -0.955118,1.61824 -1.415446,2.43742 -0.381098,0.63935 -0.726118,1.30303 -1.155303,1.91198 -0.948929,1.26524 -2.738247,-0.0768 -1.789318,-1.34199 z"
         id="path3189"
         style="color:#000000;fill:#4d4d4d;fill-opacity:1;fill-rule:nonzero;stroke:none;stroke-width:20;marker:none;visibility:visible;display:inline;overflow:visible;enable-background:accumulate" />
      <path
         inkscape:connector-curvature="0"
         d="m 25.925933,967.37552 c 0.522776,-0.70998 1.146103,-1.33559 1.761268,-1.96409 0.693832,-0.68423 1.371616,-1.38464 2.063395,-2.07085 0.357748,-0.3203 0.738056,-0.58986 1.275049,-0.50466 0.264448,0.042 0.505073,0.19526 0.721763,0.35255 0.135701,0.0985 0.395618,0.51337 0.508419,0.68523 0.375514,0.54754 0.731179,1.10859 1.130276,1.63967 0.280249,0.37292 0.396904,0.50654 0.690979,0.86342 0.383216,0.47446 0.816857,0.90499 1.255497,1.32754 0.152299,0.14406 0.282152,0.30528 0.402951,0.47582 0.875517,1.31711 -0.987149,2.55528 -1.862667,1.23818 l 0,0 c 0.07561,0.0835 -0.07769,-0.0932 -0.09208,-0.10324 -0.500717,-0.48242 -0.992798,-0.97652 -1.431021,-1.51739 -0.333595,-0.40615 -0.456528,-0.54675 -0.775302,-0.97263 -0.418803,-0.55953 -0.79514,-1.14827 -1.189143,-1.72507 -0.05335,-0.0815 -0.122775,-0.15443 -0.160024,-0.2444 -0.01063,-0.0258 0.04825,0.0285 0.0745,0.0379 0.167022,0.0594 0.32735,0.16336 0.504564,0.16813 0.18625,0.005 0.364414,-0.0809 0.541121,-0.13999 0.0069,-0.002 0.208888,-0.19162 -0.02052,0.008 -0.684434,0.67756 -1.353044,1.37125 -2.039525,2.04684 -0.564534,0.57653 -1.139024,1.14808 -1.616646,1.8012 -0.991198,1.23241 -2.73408,-0.16936 -1.742882,-1.40177 z"
         id="path3191"
         style="color:#000000;fill:#4d4d4d;fill-opacity:1;fill-rule:nonzero;stroke:none;stroke-width:20;marker:none;visibility:visible;display:inline;overflow:visible;enable-background:accumulate" />
    </g>
    <g
       style="fill:#4d4d4d"
       transform="matrix(2.0716718,2.3028592,-2.3028592,2.0716718,2237.6907,-1081.1931)"
       id="g3193">
      <path
         sodipodi:type="arc"
         style="color:#000000;fill:#4d4d4d;fill-opacity:1;fill-rule:nonzero;stroke:none;stroke-width:20;marker:none;visibility:visible;display:inline;overflow:visible;enable-background:accumulate"
         id="path3195"
         sodipodi:cx="30.444811"
         sodipodi:cy="144.31631"
         sodipodi:rx="7.1169686"
         sodipodi:ry="7.1169686"
         d="m 37.561779,144.31631 c 0,3.9306 -3.186375,7.11697 -7.116968,7.11697 -3.930593,0 -7.116969,-3.18637 -7.116969,-7.11697 0,-3.93059 3.186376,-7.11696 7.116969,-7.11696 3.930593,0 7.116968,3.18637 7.116968,7.11696 z"
         transform="translate(0,812.36218)" />
      <path
         style="color:#000000;fill:#4d4d4d;fill-opacity:1;fill-rule:nonzero;stroke:none;stroke-width:20;marker:none;visibility:visible;display:inline;overflow:visible;enable-background:accumulate"
         id="path3197"
         d="m 31.852626,149.98193 c -0.03842,0.61054 -0.03702,1.22306 -0.04248,1.83456 -0.0084,1.36606 -0.008,2.73215 -0.0083,4.09823 0.0062,1.23397 -0.0116,2.46817 0.0085,3.70203 0.02204,0.85919 0.04251,1.71839 0.05387,2.57779 0.0061,0.51084 0.0079,1.02172 0.0084,1.5326 1.1e-5,0.0499 2.1e-5,0.0997 3.1e-5,0.14961 3.25e-4,1.58155 -2.236322,1.582 -2.236647,4.6e-4 l 0,0 c -10e-6,-0.0493 -2e-5,-0.0986 -3e-5,-0.14789 -4.89e-4,-0.50177 -0.0022,-1.00354 -0.0082,-1.50527 -0.01129,-0.85729 -0.03199,-1.71436 -0.05377,-2.57144 -0.01965,-1.24601 -0.0034,-2.49231 -0.0088,-3.73843 3.28e-4,-1.37257 -1.14e-4,-2.74515 0.0084,-4.1177 0.0064,-0.71017 -6.27e-4,-1.42312 0.06487,-2.13086 0.223665,-1.56565 2.437833,-1.24934 2.214168,0.31631 z"
         inkscape:connector-curvature="0"
         transform="translate(0,812.36218)" />
      <path
         style="color:#000000;fill:#4d4d4d;fill-opacity:1;fill-rule:nonzero;stroke:none;stroke-width:20;marker:none;visibility:visible;display:inline;overflow:visible;enable-background:accumulate"
         id="path3199"
         d="m 26.414646,980.89032 c 0.370959,-0.55185 0.682878,-1.14228 1.02263,-1.7139 0.450646,-0.80432 0.936682,-1.58811 1.388821,-2.39146 0.270154,-0.45432 0.507042,-0.9273 0.769371,-1.38592 0.47327,-0.69784 0.86758,-0.75003 1.783775,-0.41669 0.254454,0.0926 0.493304,0.69455 0.605515,0.94639 0.323739,0.74099 0.636853,1.4864 0.976402,2.22039 0.259895,0.56731 0.529039,1.13034 0.793857,1.69538 0.124463,0.27881 0.229859,0.5661 0.301304,0.86293 0.03964,0.1695 0.111226,0.3261 0.152438,0.49628 0.01944,0.0803 0.03126,0.16224 0.04689,0.24336 0.03455,0.26146 0.02038,0.13492 0.04352,0.37952 0.143177,1.57506 -2.084286,1.77754 -2.227463,0.20249 l 0,0 c -0.01116,-0.13228 -0.0048,-0.0672 -0.01901,-0.19524 -0.02276,-0.2242 -0.156969,-0.4263 -0.182474,-0.65358 0.02841,0.0517 -0.02151,-0.075 -0.02647,-0.0885 -0.03696,-0.10031 -0.06906,-0.20144 -0.114169,-0.29847 -0.266271,-0.56872 -0.537425,-1.13519 -0.798869,-1.70615 -0.343316,-0.74406 -0.662598,-1.49846 -0.989688,-2.2497 -0.03068,-0.0692 -0.06252,-0.13787 -0.09205,-0.20755 -0.08809,-0.20784 0.107448,0.13878 0.216159,0.16234 0.3114,0.0675 1.268843,0.31357 1.467927,-0.27592 -0.262769,0.44966 -0.48775,0.92118 -0.75835,1.36659 -0.461576,0.81837 -0.955118,1.61824 -1.415446,2.43742 -0.381098,0.63935 -0.726118,1.30303 -1.155303,1.91198 -0.948929,1.26524 -2.738247,-0.0768 -1.789318,-1.34199 z"
         inkscape:connector-curvature="0" />
      <path
         style="color:#000000;fill:#4d4d4d;fill-opacity:1;fill-rule:nonzero;stroke:none;stroke-width:20;marker:none;visibility:visible;display:inline;overflow:visible;enable-background:accumulate"
         id="path3201"
         d="m 25.925933,967.37552 c 0.522776,-0.70998 1.146103,-1.33559 1.761268,-1.96409 0.693832,-0.68423 1.371616,-1.38464 2.063395,-2.07085 0.357748,-0.3203 0.738056,-0.58986 1.275049,-0.50466 0.264448,0.042 0.505073,0.19526 0.721763,0.35255 0.135701,0.0985 0.395618,0.51337 0.508419,0.68523 0.375514,0.54754 0.731179,1.10859 1.130276,1.63967 0.280249,0.37292 0.396904,0.50654 0.690979,0.86342 0.383216,0.47446 0.816857,0.90499 1.255497,1.32754 0.152299,0.14406 0.282152,0.30528 0.402951,0.47582 0.875517,1.31711 -0.987149,2.55528 -1.862667,1.23818 l 0,0 c 0.07561,0.0835 -0.07769,-0.0932 -0.09208,-0.10324 -0.500717,-0.48242 -0.992798,-0.97652 -1.431021,-1.51739 -0.333595,-0.40615 -0.456528,-0.54675 -0.775302,-0.97263 -0.418803,-0.55953 -0.79514,-1.14827 -1.189143,-1.72507 -0.05335,-0.0815 -0.122775,-0.15443 -0.160024,-0.2444 -0.01063,-0.0258 0.04825,0.0285 0.0745,0.0379 0.167022,0.0594 0.32735,0.16336 0.504564,0.16813 0.18625,0.005 0.364414,-0.0809 0.541121,-0.13999 0.0069,-0.002 0.208888,-0.19162 -0.02052,0.008 -0.684434,0.67756 -1.353044,1.37125 -2.039525,2.04684 -0.564534,0.57653 -1.139024,1.14808 -1.616646,1.8012 -0.991198,1.23241 -2.73408,-0.16936 -1.742882,-1.40177 z"
         inkscape:connector-curvature="0" />
    </g>
    <g
       id="use3013"
       transform="matrix(0,-3.0975772,3.0975772,0,-2900.4862,1121.9279)">
      <path
         transform="translate(0,812.36218)"
         d="m 37.561779,144.31631 c 0,3.9306 -3.186375,7.11697 -7.116968,7.11697 -3.930593,0 -7.116969,-3.18637 -7.116969,-7.11697 0,-3.93059 3.186376,-7.11696 7.116969,-7.11696 3.930593,0 7.116968,3.18637 7.116968,7.11696 z"
         sodipodi:ry="7.1169686"
         sodipodi:rx="7.1169686"
         sodipodi:cy="144.31631"
         sodipodi:cx="30.444811"
         id="path3055"
         style="color:#000000;fill:#000000;fill-opacity:1;fill-rule:nonzero;stroke:none;stroke-width:20;marker:none;visibility:visible;display:inline;overflow:visible;enable-background:accumulate"
         sodipodi:type="arc" />
      <path
         transform="translate(0,812.36218)"
         inkscape:connector-curvature="0"
         d="m 31.852626,149.98193 c -0.03842,0.61054 -0.03702,1.22306 -0.04248,1.83456 -0.0084,1.36606 -0.008,2.73215 -0.0083,4.09823 0.0062,1.23397 -0.0116,2.46817 0.0085,3.70203 0.02204,0.85919 0.04251,1.71839 0.05387,2.57779 0.0061,0.51084 0.0079,1.02172 0.0084,1.5326 1.1e-5,0.0499 2.1e-5,0.0997 3.1e-5,0.14961 3.25e-4,1.58155 -2.236322,1.582 -2.236647,4.6e-4 l 0,0 c -10e-6,-0.0493 -2e-5,-0.0986 -3e-5,-0.14789 -4.89e-4,-0.50177 -0.0022,-1.00354 -0.0082,-1.50527 -0.01129,-0.85729 -0.03199,-1.71436 -0.05377,-2.57144 -0.01965,-1.24601 -0.0034,-2.49231 -0.0088,-3.73843 3.28e-4,-1.37257 -1.14e-4,-2.74515 0.0084,-4.1177 0.0064,-0.71017 -6.27e-4,-1.42312 0.06487,-2.13086 0.223665,-1.56565 2.437833,-1.24934 2.214168,0.31631 z"
         id="path3057"
         style="color:#000000;fill:#000000;fill-opacity:1;fill-rule:nonzero;stroke:none;stroke-width:20;marker:none;visibility:visible;display:inline;overflow:visible;enable-background:accumulate" />
      <path
         inkscape:connector-curvature="0"
         d="m 26.414646,980.89032 c 0.370959,-0.55185 0.682878,-1.14228 1.02263,-1.7139 0.450646,-0.80432 0.936682,-1.58811 1.388821,-2.39146 0.270154,-0.45432 0.507042,-0.9273 0.769371,-1.38592 0.47327,-0.69784 0.86758,-0.75003 1.783775,-0.41669 0.254454,0.0926 0.493304,0.69455 0.605515,0.94639 0.323739,0.74099 0.636853,1.4864 0.976402,2.22039 0.259895,0.56731 0.529039,1.13034 0.793857,1.69538 0.124463,0.27881 0.229859,0.5661 0.301304,0.86293 0.03964,0.1695 0.111226,0.3261 0.152438,0.49628 0.01944,0.0803 0.03126,0.16224 0.04689,0.24336 0.03455,0.26146 0.02038,0.13492 0.04352,0.37952 0.143177,1.57506 -2.084286,1.77754 -2.227463,0.20249 l 0,0 c -0.01116,-0.13228 -0.0048,-0.0672 -0.01901,-0.19524 -0.02276,-0.2242 -0.156969,-0.4263 -0.182474,-0.65358 0.02841,0.0517 -0.02151,-0.075 -0.02647,-0.0885 -0.03696,-0.10031 -0.06906,-0.20144 -0.114169,-0.29847 -0.266271,-0.56872 -0.537425,-1.13519 -0.798869,-1.70615 -0.343316,-0.74406 -0.662598,-1.49846 -0.989688,-2.2497 -0.03068,-0.0692 -0.06252,-0.13787 -0.09205,-0.20755 -0.08809,-0.20784 0.107448,0.13878 0.216159,0.16234 0.3114,0.0675 1.268843,0.31357 1.467927,-0.27592 -0.262769,0.44966 -0.48775,0.92118 -0.75835,1.36659 -0.461576,0.81837 -0.955118,1.61824 -1.415446,2.43742 -0.381098,0.63935 -0.726118,1.30303 -1.155303,1.91198 -0.948929,1.26524 -2.738247,-0.0768 -1.789318,-1.34199 z"
         id="path3059"
         style="color:#000000;fill:#000000;fill-opacity:1;fill-rule:nonzero;stroke:none;stroke-width:20;marker:none;visibility:visible;display:inline;overflow:visible;enable-background:accumulate" />
      <path
         inkscape:connector-curvature="0"
         d="m 25.925933,967.37552 c 0.522776,-0.70998 1.146103,-1.33559 1.761268,-1.96409 0.693832,-0.68423 1.371616,-1.38464 2.063395,-2.07085 0.357748,-0.3203 0.738056,-0.58986 1.275049,-0.50466 0.264448,0.042 0.505073,0.19526 0.721763,0.35255 0.135701,0.0985 0.395618,0.51337 0.508419,0.68523 0.375514,0.54754 0.731179,1.10859 1.130276,1.63967 0.280249,0.37292 0.396904,0.50654 0.690979,0.86342 0.383216,0.47446 0.816857,0.90499 1.255497,1.32754 0.152299,0.14406 0.282152,0.30528 0.402951,0.47582 0.875517,1.31711 -0.987149,2.55528 -1.862667,1.23818 l 0,0 c 0.07561,0.0835 -0.07769,-0.0932 -0.09208,-0.10324 -0.500717,-0.48242 -0.992798,-0.97652 -1.431021,-1.51739 -0.333595,-0.40615 -0.456528,-0.54675 -0.775302,-0.97263 -0.418803,-0.55953 -0.79514,-1.14827 -1.189143,-1.72507 -0.05335,-0.0815 -0.122775,-0.15443 -0.160024,-0.2444 -0.01063,-0.0258 0.04825,0.0285 0.0745,0.0379 0.167022,0.0594 0.32735,0.16336 0.504564,0.16813 0.18625,0.005 0.364414,-0.0809 0.541121,-0.13999 0.0069,-0.002 0.208888,-0.19162 -0.02052,0.008 -0.684434,0.67756 -1.353044,1.37125 -2.039525,2.04684 -0.564534,0.57653 -1.139024,1.14808 -1.616646,1.8012 -0.991198,1.23241 -2.73408,-0.16936 -1.742882,-1.40177 z"
         id="path3061"
         style="color:#000000;fill:#000000;fill-opacity:1;fill-rule:nonzero;stroke:none;stroke-width:20;marker:none;visibility:visible;display:inline;overflow:visible;enable-background:accumulate" />
    </g>
    <g
       transform="matrix(3.0975772,0,0,3.0975772,-52.885821,-2013.9203)"
       id="g3063">
      <path
         sodipodi:type="arc"
         style="color:#000000;fill:#000000;fill-opacity:1;fill-rule:nonzero;stroke:none;stroke-width:20;marker:none;visibility:visible;display:inline;overflow:visible;enable-background:accumulate"
         id="path3065"
         sodipodi:cx="30.444811"
         sodipodi:cy="144.31631"
         sodipodi:rx="7.1169686"
         sodipodi:ry="7.1169686"
         d="m 37.561779,144.31631 c 0,3.9306 -3.186375,7.11697 -7.116968,7.11697 -3.930593,0 -7.116969,-3.18637 -7.116969,-7.11697 0,-3.93059 3.186376,-7.11696 7.116969,-7.11696 3.930593,0 7.116968,3.18637 7.116968,7.11696 z"
         transform="translate(0,812.36218)" />
      <path
         style="color:#000000;fill:#000000;fill-opacity:1;fill-rule:nonzero;stroke:none;stroke-width:20;marker:none;visibility:visible;display:inline;overflow:visible;enable-background:accumulate"
         id="path3067"
         d="m 31.852626,149.98193 c -0.03842,0.61054 -0.03702,1.22306 -0.04248,1.83456 -0.0084,1.36606 -0.008,2.73215 -0.0083,4.09823 0.0062,1.23397 -0.0116,2.46817 0.0085,3.70203 0.02204,0.85919 0.04251,1.71839 0.05387,2.57779 0.0061,0.51084 0.0079,1.02172 0.0084,1.5326 1.1e-5,0.0499 2.1e-5,0.0997 3.1e-5,0.14961 3.25e-4,1.58155 -2.236322,1.582 -2.236647,4.6e-4 l 0,0 c -10e-6,-0.0493 -2e-5,-0.0986 -3e-5,-0.14789 -4.89e-4,-0.50177 -0.0022,-1.00354 -0.0082,-1.50527 -0.01129,-0.85729 -0.03199,-1.71436 -0.05377,-2.57144 -0.01965,-1.24601 -0.0034,-2.49231 -0.0088,-3.73843 3.28e-4,-1.37257 -1.14e-4,-2.74515 0.0084,-4.1177 0.0064,-0.71017 -6.27e-4,-1.42312 0.06487,-2.13086 0.223665,-1.56565 2.437833,-1.24934 2.214168,0.31631 z"
         inkscape:connector-curvature="0"
         transform="translate(0,812.36218)" />
      <path
         style="color:#000000;fill:#000000;fill-opacity:1;fill-rule:nonzero;stroke:none;stroke-width:20;marker:none;visibility:visible;display:inline;overflow:visible;enable-background:accumulate"
         id="path3069"
         d="m 26.414646,980.89032 c 0.370959,-0.55185 0.682878,-1.14228 1.02263,-1.7139 0.450646,-0.80432 0.936682,-1.58811 1.388821,-2.39146 0.270154,-0.45432 0.507042,-0.9273 0.769371,-1.38592 0.47327,-0.69784 0.86758,-0.75003 1.783775,-0.41669 0.254454,0.0926 0.493304,0.69455 0.605515,0.94639 0.323739,0.74099 0.636853,1.4864 0.976402,2.22039 0.259895,0.56731 0.529039,1.13034 0.793857,1.69538 0.124463,0.27881 0.229859,0.5661 0.301304,0.86293 0.03964,0.1695 0.111226,0.3261 0.152438,0.49628 0.01944,0.0803 0.03126,0.16224 0.04689,0.24336 0.03455,0.26146 0.02038,0.13492 0.04352,0.37952 0.143177,1.57506 -2.084286,1.77754 -2.227463,0.20249 l 0,0 c -0.01116,-0.13228 -0.0048,-0.0672 -0.01901,-0.19524 -0.02276,-0.2242 -0.156969,-0.4263 -0.182474,-0.65358 0.02841,0.0517 -0.02151,-0.075 -0.02647,-0.0885 -0.03696,-0.10031 -0.06906,-0.20144 -0.114169,-0.29847 -0.266271,-0.56872 -0.537425,-1.13519 -0.798869,-1.70615 -0.343316,-0.74406 -0.662598,-1.49846 -0.989688,-2.2497 -0.03068,-0.0692 -0.06252,-0.13787 -0.09205,-0.20755 -0.08809,-0.20784 0.107448,0.13878 0.216159,0.16234 0.3114,0.0675 1.268843,0.31357 1.467927,-0.27592 -0.262769,0.44966 -0.48775,0.92118 -0.75835,1.36659 -0.461576,0.81837 -0.955118,1.61824 -1.415446,2.43742 -0.381098,0.63935 -0.726118,1.30303 -1.155303,1.91198 -0.948929,1.26524 -2.738247,-0.0768 -1.789318,-1.34199 z"
         inkscape:connector-curvature="0" />
      <path
         style="color:#000000;fill:#000000;fill-opacity:1;fill-rule:nonzero;stroke:none;stroke-width:20;marker:none;visibility:visible;display:inline;overflow:visible;enable-background:accumulate"
         id="path3071"
         d="m 25.925933,967.37552 c 0.522776,-0.70998 1.146103,-1.33559 1.761268,-1.96409 0.693832,-0.68423 1.371616,-1.38464 2.063395,-2.07085 0.357748,-0.3203 0.738056,-0.58986 1.275049,-0.50466 0.264448,0.042 0.505073,0.19526 0.721763,0.35255 0.135701,0.0985 0.395618,0.51337 0.508419,0.68523 0.375514,0.54754 0.731179,1.10859 1.130276,1.63967 0.280249,0.37292 0.396904,0.50654 0.690979,0.86342 0.383216,0.47446 0.816857,0.90499 1.255497,1.32754 0.152299,0.14406 0.282152,0.30528 0.402951,0.47582 0.875517,1.31711 -0.987149,2.55528 -1.862667,1.23818 l 0,0 c 0.07561,0.0835 -0.07769,-0.0932 -0.09208,-0.10324 -0.500717,-0.48242 -0.992798,-0.97652 -1.431021,-1.51739 -0.333595,-0.40615 -0.456528,-0.54675 -0.775302,-0.97263 -0.418803,-0.55953 -0.79514,-1.14827 -1.189143,-1.72507 -0.05335,-0.0815 -0.122775,-0.15443 -0.160024,-0.2444 -0.01063,-0.0258 0.04825,0.0285 0.0745,0.0379 0.167022,0.0594 0.32735,0.16336 0.504564,0.16813 0.18625,0.005 0.364414,-0.0809 0.541121,-0.13999 0.0069,-0.002 0.208888,-0.19162 -0.02052,0.008 -0.684434,0.67756 -1.353044,1.37125 -2.039525,2.04684 -0.564534,0.57653 -1.139024,1.14808 -1.616646,1.8012 -0.991198,1.23241 -2.73408,-0.16936 -1.742882,-1.40177 z"
         inkscape:connector-curvature="0" />
    </g>
    <g
       id="g3073"
       transform="matrix(3.0975772,0,0,3.0975772,51.100999,-2013.9203)">
      <path
         transform="translate(0,812.36218)"
         d="m 37.561779,144.31631 c 0,3.9306 -3.186375,7.11697 -7.116968,7.11697 -3.930593,0 -7.116969,-3.18637 -7.116969,-7.11697 0,-3.93059 3.186376,-7.11696 7.116969,-7.11696 3.930593,0 7.116968,3.18637 7.116968,7.11696 z"
         sodipodi:ry="7.1169686"
         sodipodi:rx="7.1169686"
         sodipodi:cy="144.31631"
         sodipodi:cx="30.444811"
         id="path3075"
         style="color:#000000;fill:#000000;fill-opacity:1;fill-rule:nonzero;stroke:none;stroke-width:20;marker:none;visibility:visible;display:inline;overflow:visible;enable-background:accumulate"
         sodipodi:type="arc" />
      <path
         transform="translate(0,812.36218)"
         inkscape:connector-curvature="0"
         d="m 31.852626,149.98193 c -0.03842,0.61054 -0.03702,1.22306 -0.04248,1.83456 -0.0084,1.36606 -0.008,2.73215 -0.0083,4.09823 0.0062,1.23397 -0.0116,2.46817 0.0085,3.70203 0.02204,0.85919 0.04251,1.71839 0.05387,2.57779 0.0061,0.51084 0.0079,1.02172 0.0084,1.5326 1.1e-5,0.0499 2.1e-5,0.0997 3.1e-5,0.14961 3.25e-4,1.58155 -2.236322,1.582 -2.236647,4.6e-4 l 0,0 c -10e-6,-0.0493 -2e-5,-0.0986 -3e-5,-0.14789 -4.89e-4,-0.50177 -0.0022,-1.00354 -0.0082,-1.50527 -0.01129,-0.85729 -0.03199,-1.71436 -0.05377,-2.57144 -0.01965,-1.24601 -0.0034,-2.49231 -0.0088,-3.73843 3.28e-4,-1.37257 -1.14e-4,-2.74515 0.0084,-4.1177 0.0064,-0.71017 -6.27e-4,-1.42312 0.06487,-2.13086 0.223665,-1.56565 2.437833,-1.24934 2.214168,0.31631 z"
         id="path3077"
         style="color:#000000;fill:#000000;fill-opacity:1;fill-rule:nonzero;stroke:none;stroke-width:20;marker:none;visibility:visible;display:inline;overflow:visible;enable-background:accumulate" />
      <path
         inkscape:connector-curvature="0"
         d="m 26.414646,980.89032 c 0.370959,-0.55185 0.682878,-1.14228 1.02263,-1.7139 0.450646,-0.80432 0.936682,-1.58811 1.388821,-2.39146 0.270154,-0.45432 0.507042,-0.9273 0.769371,-1.38592 0.47327,-0.69784 0.86758,-0.75003 1.783775,-0.41669 0.254454,0.0926 0.493304,0.69455 0.605515,0.94639 0.323739,0.74099 0.636853,1.4864 0.976402,2.22039 0.259895,0.56731 0.529039,1.13034 0.793857,1.69538 0.124463,0.27881 0.229859,0.5661 0.301304,0.86293 0.03964,0.1695 0.111226,0.3261 0.152438,0.49628 0.01944,0.0803 0.03126,0.16224 0.04689,0.24336 0.03455,0.26146 0.02038,0.13492 0.04352,0.37952 0.143177,1.57506 -2.084286,1.77754 -2.227463,0.20249 l 0,0 c -0.01116,-0.13228 -0.0048,-0.0672 -0.01901,-0.19524 -0.02276,-0.2242 -0.156969,-0.4263 -0.182474,-0.65358 0.02841,0.0517 -0.02151,-0.075 -0.02647,-0.0885 -0.03696,-0.10031 -0.06906,-0.20144 -0.114169,-0.29847 -0.266271,-0.56872 -0.537425,-1.13519 -0.798869,-1.70615 -0.343316,-0.74406 -0.662598,-1.49846 -0.989688,-2.2497 -0.03068,-0.0692 -0.06252,-0.13787 -0.09205,-0.20755 -0.08809,-0.20784 0.107448,0.13878 0.216159,0.16234 0.3114,0.0675 1.268843,0.31357 1.467927,-0.27592 -0.262769,0.44966 -0.48775,0.92118 -0.75835,1.36659 -0.461576,0.81837 -0.955118,1.61824 -1.415446,2.43742 -0.381098,0.63935 -0.726118,1.30303 -1.155303,1.91198 -0.948929,1.26524 -2.738247,-0.0768 -1.789318,-1.34199 z"
         id="path3079"
         style="color:#000000;fill:#000000;fill-opacity:1;fill-rule:nonzero;stroke:none;stroke-width:20;marker:none;visibility:visible;display:inline;overflow:visible;enable-background:accumulate" />
      <path
         inkscape:connector-curvature="0"
         d="m 25.925933,967.37552 c 0.522776,-0.70998 1.146103,-1.33559 1.761268,-1.96409 0.693832,-0.68423 1.371616,-1.38464 2.063395,-2.07085 0.357748,-0.3203 0.738056,-0.58986 1.275049,-0.50466 0.264448,0.042 0.505073,0.19526 0.721763,0.35255 0.135701,0.0985 0.395618,0.51337 0.508419,0.68523 0.375514,0.54754 0.731179,1.10859 1.130276,1.63967 0.280249,0.37292 0.396904,0.50654 0.690979,0.86342 0.383216,0.47446 0.816857,0.90499 1.255497,1.32754 0.152299,0.14406 0.282152,0.30528 0.402951,0.47582 0.875517,1.31711 -0.987149,2.55528 -1.862667,1.23818 l 0,0 c 0.07561,0.0835 -0.07769,-0.0932 -0.09208,-0.10324 -0.500717,-0.48242 -0.992798,-0.97652 -1.431021,-1.51739 -0.333595,-0.40615 -0.456528,-0.54675 -0.775302,-0.97263 -0.418803,-0.55953 -0.79514,-1.14827 -1.189143,-1.72507 -0.05335,-0.0815 -0.122775,-0.15443 -0.160024,-0.2444 -0.01063,-0.0258 0.04825,0.0285 0.0745,0.0379 0.167022,0.0594 0.32735,0.16336 0.504564,0.16813 0.18625,0.005 0.364414,-0.0809 0.541121,-0.13999 0.0069,-0.002 0.208888,-0.19162 -0.02052,0.008 -0.684434,0.67756 -1.353044,1.37125 -2.039525,2.04684 -0.564534,0.57653 -1.139024,1.14808 -1.616646,1.8012 -0.991198,1.23241 -2.73408,-0.16936 -1.742882,-1.40177 z"
         id="path3081"
         style="color:#000000;fill:#000000;fill-opacity:1;fill-rule:nonzero;stroke:none;stroke-width:20;marker:none;visibility:visible;display:inline;overflow:visible;enable-background:accumulate" />
    </g>
    <g
       id="g3083"
       transform="matrix(0,-3.0975772,3.0975772,0,-2900.4862,1023.8719)">
      <path
         transform="translate(0,812.36218)"
         d="m 37.561779,144.31631 c 0,3.9306 -3.186375,7.11697 -7.116968,7.11697 -3.930593,0 -7.116969,-3.18637 -7.116969,-7.11697 0,-3.93059 3.186376,-7.11696 7.116969,-7.11696 3.930593,0 7.116968,3.18637 7.116968,7.11696 z"
         sodipodi:ry="7.1169686"
         sodipodi:rx="7.1169686"
         sodipodi:cy="144.31631"
         sodipodi:cx="30.444811"
         id="path3085"
         style="color:#000000;fill:#000000;fill-opacity:1;fill-rule:nonzero;stroke:none;stroke-width:20;marker:none;visibility:visible;display:inline;overflow:visible;enable-background:accumulate"
         sodipodi:type="arc" />
      <path
         transform="translate(0,812.36218)"
         inkscape:connector-curvature="0"
         d="m 31.852626,149.98193 c -0.03842,0.61054 -0.03702,1.22306 -0.04248,1.83456 -0.0084,1.36606 -0.008,2.73215 -0.0083,4.09823 0.0062,1.23397 -0.0116,2.46817 0.0085,3.70203 0.02204,0.85919 0.04251,1.71839 0.05387,2.57779 0.0061,0.51084 0.0079,1.02172 0.0084,1.5326 1.1e-5,0.0499 2.1e-5,0.0997 3.1e-5,0.14961 3.25e-4,1.58155 -2.236322,1.582 -2.236647,4.6e-4 l 0,0 c -10e-6,-0.0493 -2e-5,-0.0986 -3e-5,-0.14789 -4.89e-4,-0.50177 -0.0022,-1.00354 -0.0082,-1.50527 -0.01129,-0.85729 -0.03199,-1.71436 -0.05377,-2.57144 -0.01965,-1.24601 -0.0034,-2.49231 -0.0088,-3.73843 3.28e-4,-1.37257 -1.14e-4,-2.74515 0.0084,-4.1177 0.0064,-0.71017 -6.27e-4,-1.42312 0.06487,-2.13086 0.223665,-1.56565 2.437833,-1.24934 2.214168,0.31631 z"
         id="path3087"
         style="color:#000000;fill:#000000;fill-opacity:1;fill-rule:nonzero;stroke:none;stroke-width:20;marker:none;visibility:visible;display:inline;overflow:visible;enable-background:accumulate" />
      <path
         inkscape:connector-curvature="0"
         d="m 26.414646,980.89032 c 0.370959,-0.55185 0.682878,-1.14228 1.02263,-1.7139 0.450646,-0.80432 0.936682,-1.58811 1.388821,-2.39146 0.270154,-0.45432 0.507042,-0.9273 0.769371,-1.38592 0.47327,-0.69784 0.86758,-0.75003 1.783775,-0.41669 0.254454,0.0926 0.493304,0.69455 0.605515,0.94639 0.323739,0.74099 0.636853,1.4864 0.976402,2.22039 0.259895,0.56731 0.529039,1.13034 0.793857,1.69538 0.124463,0.27881 0.229859,0.5661 0.301304,0.86293 0.03964,0.1695 0.111226,0.3261 0.152438,0.49628 0.01944,0.0803 0.03126,0.16224 0.04689,0.24336 0.03455,0.26146 0.02038,0.13492 0.04352,0.37952 0.143177,1.57506 -2.084286,1.77754 -2.227463,0.20249 l 0,0 c -0.01116,-0.13228 -0.0048,-0.0672 -0.01901,-0.19524 -0.02276,-0.2242 -0.156969,-0.4263 -0.182474,-0.65358 0.02841,0.0517 -0.02151,-0.075 -0.02647,-0.0885 -0.03696,-0.10031 -0.06906,-0.20144 -0.114169,-0.29847 -0.266271,-0.56872 -0.537425,-1.13519 -0.798869,-1.70615 -0.343316,-0.74406 -0.662598,-1.49846 -0.989688,-2.2497 -0.03068,-0.0692 -0.06252,-0.13787 -0.09205,-0.20755 -0.08809,-0.20784 0.107448,0.13878 0.216159,0.16234 0.3114,0.0675 1.268843,0.31357 1.467927,-0.27592 -0.262769,0.44966 -0.48775,0.92118 -0.75835,1.36659 -0.461576,0.81837 -0.955118,1.61824 -1.415446,2.43742 -0.381098,0.63935 -0.726118,1.30303 -1.155303,1.91198 -0.948929,1.26524 -2.738247,-0.0768 -1.789318,-1.34199 z"
         id="path3089"
         style="color:#000000;fill:#000000;fill-opacity:1;fill-rule:nonzero;stroke:none;stroke-width:20;marker:none;visibility:visible;display:inline;overflow:visible;enable-background:accumulate" />
      <path
         inkscape:connector-curvature="0"
         d="m 25.925933,967.37552 c 0.522776,-0.70998 1.146103,-1.33559 1.761268,-1.96409 0.693832,-0.68423 1.371616,-1.38464 2.063395,-2.07085 0.357748,-0.3203 0.738056,-0.58986 1.275049,-0.50466 0.264448,0.042 0.505073,0.19526 0.721763,0.35255 0.135701,0.0985 0.395618,0.51337 0.508419,0.68523 0.375514,0.54754 0.731179,1.10859 1.130276,1.63967 0.280249,0.37292 0.396904,0.50654 0.690979,0.86342 0.383216,0.47446 0.816857,0.90499 1.255497,1.32754 0.152299,0.14406 0.282152,0.30528 0.402951,0.47582 0.875517,1.31711 -0.987149,2.55528 -1.862667,1.23818 l 0,0 c 0.07561,0.0835 -0.07769,-0.0932 -0.09208,-0.10324 -0.500717,-0.48242 -0.992798,-0.97652 -1.431021,-1.51739 -0.333595,-0.40615 -0.456528,-0.54675 -0.775302,-0.97263 -0.418803,-0.55953 -0.79514,-1.14827 -1.189143,-1.72507 -0.05335,-0.0815 -0.122775,-0.15443 -0.160024,-0.2444 -0.01063,-0.0258 0.04825,0.0285 0.0745,0.0379 0.167022,0.0594 0.32735,0.16336 0.504564,0.16813 0.18625,0.005 0.364414,-0.0809 0.541121,-0.13999 0.0069,-0.002 0.208888,-0.19162 -0.02052,0.008 -0.684434,0.67756 -1.353044,1.37125 -2.039525,2.04684 -0.564534,0.57653 -1.139024,1.14808 -1.616646,1.8012 -0.991198,1.23241 -2.73408,-0.16936 -1.742882,-1.40177 z"
         id="path3091"
         style="color:#000000;fill:#000000;fill-opacity:1;fill-rule:nonzero;stroke:none;stroke-width:20;marker:none;visibility:visible;display:inline;overflow:visible;enable-background:accumulate" />
    </g>
  </g>
</svg>
